ply
format ascii 1.0
comment Created by Blender 2.79 (sub 0) - www.blender.org, source file: 'marbled_bathroom_refined_0.001_d_m.blend'
element vertex 210
property float x
property float y
property float z
property float nx
property float ny
property float nz
property uchar red
property uchar green
property uchar blue
element face 122
property list uchar uint vertex_indices
end_header
-1.704952 1.741938 0.955888 -0.000000 0.000000 1.000000 231 231 231
-1.808689 1.750000 0.955888 -0.000000 0.000000 1.000000 231 231 231
-1.808689 1.741938 0.955888 -0.000000 0.000000 1.000000 231 231 231
-1.703469 1.741938 0.807948 1.000000 -0.000000 0.000000 231 231 231
-1.703469 1.750000 0.954405 1.000000 -0.000000 0.000000 231 231 231
-1.703469 1.741938 0.954405 1.000000 -0.000000 0.000000 231 231 231
-1.812658 1.741938 0.806464 -0.000000 0.000000 -1.000000 231 231 231
-1.808689 1.750000 0.806464 -0.000000 0.000000 -1.000000 231 231 231
-1.808689 1.741938 0.806464 -0.000000 0.000000 -1.000000 231 231 231
-1.812658 1.739470 0.904266 0.000000 -1.000000 -0.000000 231 231 231
-1.808689 1.739470 0.953505 0.000000 -1.000000 -0.000000 231 231 231
-1.812658 1.739470 0.953505 0.000000 -1.000000 -0.000000 231 231 231
-1.812658 1.741938 0.955888 -0.000000 0.000000 1.000000 231 231 231
-1.941985 1.750000 0.955888 -0.000000 0.000000 1.000000 231 231 231
-1.941985 1.741938 0.955888 -0.000000 0.000000 1.000000 231 231 231
-1.704952 1.750000 0.806464 -0.000000 0.000000 -1.000000 231 231 231
-1.704952 1.741938 0.806464 -0.000000 0.000000 -1.000000 231 231 231
-1.941985 1.741938 0.955888 0.000000 -0.694611 0.719386 231 231 231
-1.940922 1.739470 0.953505 0.000000 -0.694611 0.719386 231 231 231
-1.812658 1.741938 0.955888 0.000000 -0.694611 0.719386 231 231 231
-1.941985 1.741938 0.806464 -0.000000 0.000000 -1.000000 231 231 231
-1.812658 1.750000 0.806464 -0.000000 0.000000 -1.000000 231 231 231
-1.808689 1.739470 0.853243 0.000000 -1.000000 0.000000 231 231 231
-1.812658 1.739470 0.853243 0.000000 -1.000000 0.000000 231 231 231
-1.808689 1.739470 0.853243 0.010435 0.000000 -0.999946 231 231 231
-1.762310 1.735208 0.853727 0.010435 0.000000 -0.999946 231 231 231
-1.808689 1.735692 0.853243 0.010435 0.000000 -0.999946 231 231 231
-1.762277 1.739470 0.904266 0.993557 -0.112987 0.008879 231 231 231
-1.762310 1.735208 0.853727 0.993557 -0.112987 0.008879 231 231 231
-1.761821 1.739470 0.853243 0.993557 -0.112987 0.008879 231 231 231
-1.888303 1.739470 0.853243 0.000000 0.000000 -1.000000 231 231 231
-1.812658 1.735692 0.853243 0.000000 0.000000 -1.000000 231 231 231
-1.888303 1.735692 0.853243 0.000000 0.000000 -1.000000 231 231 231
-1.888303 1.739470 0.904266 0.000000 -0.113068 0.993587 231 231 231
-1.813143 1.735208 0.903781 0.000000 -0.113068 0.993587 231 231 231
-1.812658 1.739470 0.904266 0.000000 -0.113068 0.993587 231 231 231
-1.888303 1.739470 0.853243 -1.000000 -0.000000 -0.000000 231 231 231
-1.888303 1.735692 0.904266 -1.000000 -0.000000 -0.000000 231 231 231
-1.888303 1.739470 0.904266 -1.000000 -0.000000 -0.000000 231 231 231
-1.785258 1.735208 0.878754 -0.000000 -1.000000 -0.000000 231 231 231
-1.762310 1.735208 0.853727 -0.000000 -1.000000 -0.000000 231 231 231
-1.762758 1.735208 0.903781 -0.000000 -1.000000 -0.000000 231 231 231
-1.850723 1.735450 0.878512 -0.006439 -0.999979 0.000000 231 231 231
-1.813143 1.735208 0.903781 -0.006439 -0.999979 0.000000 231 231 231
-1.888303 1.735692 0.904266 -0.006439 -0.999979 0.000000 231 231 231
-1.812658 1.739470 0.853243 0.999954 0.000000 0.009598 231 231 231
-1.813143 1.735208 0.903781 0.999954 0.000000 0.009598 231 231 231
-1.812658 1.735692 0.853243 0.999954 0.000000 0.009598 231 231 231
-1.808689 1.739470 0.853243 -0.993614 -0.112835 0.000000 231 231 231
-1.808205 1.735208 0.903781 -0.993614 -0.112835 0.000000 231 231 231
-1.808689 1.739470 0.904266 -0.993614 -0.112835 0.000000 231 231 231
-1.808689 1.739470 0.808624 0.000000 -1.000000 0.000000 231 231 231
-1.812658 1.739470 0.808624 0.000000 -1.000000 0.000000 231 231 231
-1.914613 1.739470 0.856445 -0.000000 -1.000000 0.000000 231 231 231
-1.940922 1.739470 0.808624 -0.000000 -1.000000 0.000000 231 231 231
-1.888303 1.739470 0.853243 -0.000000 -1.000000 0.000000 231 231 231
-1.706182 1.739470 0.917287 0.000000 -1.000000 0.000000 231 231 231
-1.706184 1.739470 0.953505 0.000000 -1.000000 0.000000 231 231 231
-1.734231 1.739470 0.928886 0.000000 -1.000000 0.000000 231 231 231
-1.785255 1.739470 0.830933 0.000000 -1.000000 -0.000000 231 231 231
-1.761821 1.739470 0.853243 0.000000 -1.000000 -0.000000 231 231 231
-1.914613 1.739470 0.830933 0.000000 -1.000000 0.000000 231 231 231
-1.876790 1.739470 0.808624 0.000000 -1.000000 0.000000 231 231 231
-1.812658 1.750000 0.955888 -0.000000 0.000000 1.000000 231 231 231
-1.876790 1.739470 0.953505 0.000000 -1.000000 0.000000 231 231 231
-1.940922 1.739470 0.953505 0.000000 -1.000000 0.000000 231 231 231
-1.914613 1.739470 0.928886 0.000000 -1.000000 0.000000 231 231 231
-1.704952 1.741938 0.806464 -0.000127 -0.660273 -0.751026 231 231 231
-1.704412 1.741078 0.807220 -0.000127 -0.660273 -0.751026 231 231 231
-1.706176 1.739470 0.808634 -0.000127 -0.660273 -0.751026 231 231 231
-1.808689 1.739470 0.953505 0.000000 -0.694611 0.719386 231 231 231
-1.812658 1.739470 0.953505 0.000000 -0.694611 0.719386 231 231 231
-1.812658 1.741938 0.806464 0.000000 -0.658595 -0.752498 231 231 231
-1.812658 1.739470 0.808624 0.000000 -0.658595 -0.752498 231 231 231
-1.940922 1.739470 0.808624 0.000000 -0.658595 -0.752498 231 231 231
-1.706184 1.739470 0.953505 0.673735 -0.738973 0.000037 231 231 231
-1.706176 1.739470 0.808634 0.673735 -0.738973 0.000037 231 231 231
-1.703469 1.741938 0.807948 0.673735 -0.738973 0.000037 231 231 231
-1.808689 1.741938 0.806464 0.000000 -0.658595 -0.752498 231 231 231
-1.706184 1.739470 0.953505 0.000000 -0.694611 0.719386 231 231 231
-1.704952 1.741938 0.955888 0.000000 -0.694611 0.719386 231 231 231
-1.808689 1.741938 0.955888 0.000000 -0.694611 0.719386 231 231 231
-1.940922 1.739470 0.953505 -0.695877 -0.718162 0.000000 231 231 231
-1.943469 1.741938 0.807948 -0.695877 -0.718162 0.000000 231 231 231
-1.940922 1.739470 0.808624 -0.695877 -0.718162 0.000000 231 231 231
-1.734231 1.739470 0.928886 0.000000 -1.000000 -0.000000 231 231 231
-1.757436 1.739470 0.953505 0.000000 -1.000000 -0.000000 231 231 231
-1.941985 1.741938 0.955888 -0.694719 -0.184481 0.695221 231 231 231
-1.943469 1.741938 0.954405 -0.694719 -0.184481 0.695221 231 231 231
-1.942585 1.741081 0.955061 -0.694719 -0.184481 0.695221 231 231 231
-1.943469 1.741938 0.807948 -0.698346 -0.156796 -0.698375 231 231 231
-1.941985 1.741938 0.806464 -0.698346 -0.156796 -0.698375 231 231 231
-1.942559 1.741056 0.807236 -0.698346 -0.156796 -0.698375 231 231 231
-1.704952 1.741938 0.806464 0.696498 -0.174479 -0.696023 231 231 231
-1.703469 1.741938 0.807948 0.696498 -0.174479 -0.696023 231 231 231
-1.704412 1.741078 0.807220 0.696498 -0.174479 -0.696023 231 231 231
-1.703469 1.741938 0.954405 0.692432 -0.202670 0.692432 231 231 231
-1.704952 1.741938 0.955888 0.692432 -0.202670 0.692432 231 231 231
-1.704389 1.741101 0.955080 0.692432 -0.202670 0.692432 231 231 231
-1.703469 1.750000 0.954405 0.707107 0.000000 0.707107 231 231 231
-1.704952 1.741938 0.955888 0.707107 0.000000 0.707107 231 231 231
-1.703469 1.741938 0.954405 0.707107 0.000000 0.707107 231 231 231
-1.943469 1.741938 0.954405 -0.706851 0.000000 0.707362 231 231 231
-1.941985 1.750000 0.955888 -0.706851 0.000000 0.707362 231 231 231
-1.943469 1.750000 0.954405 -0.706851 0.000000 0.707362 231 231 231
-1.703469 1.741938 0.807948 0.707348 0.000000 -0.706865 231 231 231
-1.704952 1.750000 0.806464 0.707348 0.000000 -0.706865 231 231 231
-1.703469 1.750000 0.807948 0.707348 0.000000 -0.706865 231 231 231
-1.941985 1.741938 0.806464 -0.707093 0.000000 -0.707121 231 231 231
-1.943469 1.750000 0.807948 -0.707093 0.000000 -0.707121 231 231 231
-1.941985 1.750000 0.806464 -0.707093 0.000000 -0.707121 231 231 231
-1.943469 1.741938 0.954405 -1.000000 0.000000 0.000000 231 231 231
-1.943469 1.750000 0.807948 -1.000000 0.000000 0.000000 231 231 231
-1.943469 1.741938 0.807948 -1.000000 0.000000 0.000000 231 231 231
-1.762277 1.739470 0.904266 0.000000 -0.113068 0.993587 231 231 231
-1.808205 1.735208 0.903781 0.000000 -0.113068 0.993587 231 231 231
-1.762758 1.735208 0.903781 0.000000 -0.113068 0.993587 231 231 231
-1.704952 1.750000 0.955888 -0.000000 0.000000 1.000000 231 231 231
-1.703469 1.750000 0.807948 1.000000 0.000000 0.000000 231 231 231
-1.808689 1.739470 0.904266 -0.000000 -1.000000 -0.000000 231 231 231
-1.942585 1.741081 0.955061 0.000391 -0.694524 0.719470 231 231 231
-1.940922 1.739470 0.953505 0.000391 -0.694524 0.719470 231 231 231
-1.941985 1.741938 0.955888 0.000391 -0.694524 0.719470 231 231 231
-1.941985 1.750000 0.806464 -0.000000 -0.000000 -1.000000 231 231 231
-1.808689 1.739470 0.853243 -0.000000 -0.112835 -0.993614 231 231 231
-1.761821 1.739470 0.853243 -0.000000 -0.112835 -0.993614 231 231 231
-1.762310 1.735208 0.853727 -0.000000 -0.112835 -0.993614 231 231 231
-1.762277 1.739470 0.904266 0.993539 -0.113144 0.008892 231 231 231
-1.762758 1.735208 0.903781 0.993539 -0.113144 0.008892 231 231 231
-1.762310 1.735208 0.853727 0.993539 -0.113144 0.008892 231 231 231
-1.812658 1.739470 0.853243 0.000000 0.000000 -1.000000 231 231 231
-1.888303 1.739470 0.904266 0.006453 -0.000000 0.999979 231 231 231
-1.888303 1.735692 0.904266 0.006453 -0.000000 0.999979 231 231 231
-1.813143 1.735208 0.903781 0.006453 -0.000000 0.999979 231 231 231
-1.888303 1.735692 0.853243 -1.000000 0.000000 0.000000 231 231 231
-1.808689 1.735692 0.853243 -0.010336 -0.999902 -0.009477 231 231 231
-1.762310 1.735208 0.853727 -0.010336 -0.999902 -0.009477 231 231 231
-1.785258 1.735208 0.878754 -0.010336 -0.999902 -0.009477 231 231 231
-1.812658 1.735692 0.853243 -0.000000 -0.999954 -0.009576 231 231 231
-1.813143 1.735208 0.903781 -0.000000 -0.999954 -0.009576 231 231 231
-1.850723 1.735450 0.878512 -0.000000 -0.999954 -0.009576 231 231 231
-1.812658 1.739470 0.853243 0.993586 -0.113082 0.000000 231 231 231
-1.812658 1.739470 0.904266 0.993586 -0.113082 0.000000 231 231 231
-1.813143 1.735208 0.903781 0.993586 -0.113082 0.000000 231 231 231
-1.808689 1.739470 0.853243 -0.999954 0.000000 0.009576 231 231 231
-1.808689 1.735692 0.853243 -0.999954 0.000000 0.009576 231 231 231
-1.808205 1.735208 0.903781 -0.999954 0.000000 0.009576 231 231 231
-1.940922 1.739470 0.881065 -0.000000 -1.000000 0.000000 231 231 231
-1.914613 1.739470 0.856445 -0.000000 -1.000000 0.000000 231 231 231
-1.706176 1.739470 0.808634 -0.000000 -1.000000 -0.000000 231 231 231
-1.734227 1.739470 0.856450 -0.000000 -1.000000 -0.000000 231 231 231
-1.757432 1.739470 0.808629 0.000000 -1.000000 -0.000000 231 231 231
-1.733998 1.739470 0.830939 0.000000 -1.000000 -0.000000 231 231 231
-1.850481 1.739470 0.830933 0.000000 -1.000000 0.000000 231 231 231
-1.850481 1.739470 0.928886 0.000000 -1.000000 0.000000 231 231 231
-1.808689 1.739470 0.808624 0.000073 -0.658595 -0.752498 231 231 231
-1.808689 1.741938 0.806464 0.000073 -0.658595 -0.752498 231 231 231
-1.706176 1.739470 0.808634 0.000073 -0.658595 -0.752498 231 231 231
-1.808689 1.741938 0.806464 -0.000000 -0.660308 -0.750995 231 231 231
-1.704952 1.741938 0.806464 -0.000000 -0.660308 -0.750995 231 231 231
-1.706176 1.739470 0.808634 -0.000000 -0.660308 -0.750995 231 231 231
-1.940922 1.739470 0.808624 -0.000029 -0.658602 -0.752492 231 231 231
-1.942559 1.741056 0.807236 -0.000029 -0.658602 -0.752492 231 231 231
-1.941985 1.741938 0.806464 -0.000029 -0.658602 -0.752492 231 231 231
-1.941985 1.741938 0.806464 -0.000000 -0.658595 -0.752498 231 231 231
-1.706176 1.739470 0.808634 0.673760 -0.738950 0.000220 231 231 231
-1.704412 1.741078 0.807220 0.673760 -0.738950 0.000220 231 231 231
-1.703469 1.741938 0.807948 0.673760 -0.738950 0.000220 231 231 231
-1.703469 1.741938 0.807948 0.672645 -0.739965 0.000000 231 231 231
-1.703469 1.741938 0.954405 0.672645 -0.739965 0.000000 231 231 231
-1.706184 1.739470 0.953505 0.672645 -0.739965 0.000000 231 231 231
-1.703469 1.741938 0.954405 0.672744 -0.739875 -0.000546 231 231 231
-1.704389 1.741101 0.955080 0.672744 -0.739875 -0.000546 231 231 231
-1.706184 1.739470 0.953505 0.672744 -0.739875 -0.000546 231 231 231
-1.808689 1.739470 0.808624 0.000000 -0.658595 -0.752498 231 231 231
-1.706184 1.739470 0.953505 -0.000105 -0.694583 0.719412 231 231 231
-1.704389 1.741101 0.955080 -0.000105 -0.694583 0.719412 231 231 231
-1.704952 1.741938 0.955888 -0.000105 -0.694583 0.719412 231 231 231
-1.940922 1.739470 0.953505 -0.695927 -0.718113 -0.000276 231 231 231
-1.942585 1.741081 0.955061 -0.695927 -0.718113 -0.000276 231 231 231
-1.943469 1.741938 0.954405 -0.695927 -0.718113 -0.000276 231 231 231
-1.943469 1.741938 0.954405 -0.695876 -0.718161 0.000000 231 231 231
-1.943469 1.741938 0.807948 -0.695876 -0.718161 0.000000 231 231 231
-1.940922 1.739470 0.953505 -0.695876 -0.718161 0.000000 231 231 231
-1.943469 1.741938 0.807948 -0.695900 -0.718139 0.000169 231 231 231
-1.942559 1.741056 0.807236 -0.695900 -0.718139 0.000169 231 231 231
-1.940922 1.739470 0.808624 -0.695900 -0.718139 0.000169 231 231 231
-1.762277 1.739470 0.904266 -0.000000 -1.000000 -0.000000 231 231 231
-1.785483 1.739470 0.928886 -0.000000 -1.000000 -0.000000 231 231 231
-1.704952 1.750000 0.955888 0.707107 -0.000000 0.707107 231 231 231
-1.941985 1.741938 0.955888 -0.706851 0.000000 0.707362 231 231 231
-1.704952 1.741938 0.806464 0.707348 0.000000 -0.706865 231 231 231
-1.943469 1.741938 0.807948 -0.707093 -0.000000 -0.707121 231 231 231
-1.943469 1.750000 0.954405 -1.000000 0.000000 0.000000 231 231 231
-1.808689 1.739470 0.904266 0.000000 -0.113068 0.993587 231 231 231
-1.808205 1.735208 0.903781 -0.000000 -1.000000 0.000000 231 231 231
-1.888303 1.735692 0.853243 -0.006439 -0.999979 0.000000 231 231 231
-1.888303 1.739470 0.904266 0.000000 -1.000000 0.000000 231 231 231
-1.734227 1.739470 0.856450 -0.000000 -1.000000 -0.000000 231 231 231
-1.706178 1.739470 0.844852 -0.000000 -1.000000 -0.000000 231 231 231
-1.706180 1.739470 0.881069 -0.000000 -1.000000 -0.000000 231 231 231
-1.850481 1.739470 0.830933 0.000000 -1.000000 0.000000 231 231 231
-1.850481 1.739470 0.928886 0.000000 -1.000000 -0.000000 231 231 231
-1.785483 1.739470 0.928886 -0.000000 -1.000000 0.000000 231 231 231
-1.808205 1.735208 0.903781 -0.010336 -0.999902 -0.009477 231 231 231
-1.888303 1.735692 0.853243 -0.000000 -0.999954 -0.009576 231 231 231
-1.940922 1.739470 0.917285 0.000000 -1.000000 0.000000 231 231 231
-1.785255 1.739470 0.830933 0.000000 -1.000000 0.000000 231 231 231
-1.734228 1.739470 0.892668 0.000000 -1.000000 -0.000000 231 231 231
-1.734228 1.739470 0.892668 -0.000000 -1.000000 -0.000000 231 231 231
3 0 1 2
3 3 4 5
3 6 7 8
3 9 10 11
3 12 13 14
3 8 15 16
3 17 18 19
3 20 21 6
3 22 9 23
3 24 25 26
3 27 28 29
3 30 31 32
3 33 34 35
3 36 37 38
3 39 40 41
3 42 43 44
3 45 46 47
3 48 49 50
3 51 23 52
3 53 54 55
3 56 57 58
3 59 60 22
3 61 54 62
3 2 63 12
3 64 65 66
3 67 68 69
3 70 19 71
3 72 73 74
3 75 76 77
3 78 73 72
3 79 80 81
3 82 83 84
3 85 57 86
3 87 88 89
3 90 91 92
3 93 94 95
3 96 97 98
3 99 100 101
3 102 103 104
3 105 106 107
3 108 109 110
3 111 112 113
3 114 115 116
3 0 117 1
3 3 118 4
3 6 21 7
3 9 119 10
3 12 63 13
3 8 7 15
3 120 121 122
3 18 71 19
3 20 123 21
3 22 119 9
3 124 125 126
3 127 128 129
3 30 130 31
3 131 132 133
3 36 134 37
3 135 136 137
3 138 139 140
3 141 142 143
3 144 145 146
3 51 22 23
3 147 54 148
3 60 149 150
3 151 152 60
3 23 55 153
3 2 1 63
3 9 11 154
3 155 156 157
3 158 159 160
3 70 81 19
3 161 162 163
3 164 72 74
3 165 166 167
3 168 169 170
3 171 172 173
3 78 174 73
3 81 70 79
3 175 176 177
3 178 179 180
3 181 182 183
3 184 185 186
3 119 187 188
3 99 189 100
3 102 190 103
3 105 191 106
3 108 192 109
3 111 193 112
3 114 194 115
3 195 39 41
3 196 42 44
3 197 53 55
3 198 199 200
3 51 59 22
3 201 55 62
3 202 11 64
3 203 187 86
3 204 135 137
3 205 138 140
3 197 206 147
3 187 60 150
3 151 60 207
3 52 23 153
3 197 9 154
3 10 119 188
3 198 200 208
3 52 201 62
3 197 202 64
3 10 203 86
3 197 65 206
3 51 151 207
3 187 198 208
3 209 200 58
3 55 61 62
3 197 64 66
3 187 85 86
3 197 147 148
3 151 149 152
3 198 149 199
3 187 209 58
3 200 56 58
