ply
format ascii 1.0
comment Created by Blender 2.79 (sub 0) - www.blender.org, source file: 'marbled_bathroom_refined_0.001_d_m.blend'
element vertex 258
property float x
property float y
property float z
property float nx
property float ny
property float nz
property uchar red
property uchar green
property uchar blue
element face 256
property list uchar uint vertex_indices
end_header
-2.687500 -0.249301 -0.000000 0.000000 -0.000000 1.000000 231 231 231
-2.662500 -0.249301 -0.000000 0.000000 -0.000000 1.000000 231 231 231
-2.650000 -0.199301 -0.000000 0.000000 -0.000000 1.000000 231 231 231
-2.562500 0.150699 0.000000 0.000000 -0.000000 1.000000 231 231 231
-2.550000 0.200699 0.000000 0.000000 -0.000000 1.000000 231 231 231
-2.587500 0.150699 0.000000 0.000000 -0.000000 1.000000 231 231 231
-2.675000 -0.299301 -0.000000 0.000000 -0.000000 1.000000 231 231 231
-2.643750 -0.324301 -0.000000 0.000000 -0.000000 1.000000 231 231 231
-2.625000 -0.299301 -0.000000 0.000000 -0.000000 1.000000 231 231 231
-2.587500 0.050699 0.000000 0.000000 -0.000000 1.000000 231 231 231
-2.600000 0.000699 0.000000 0.000000 -0.000000 1.000000 231 231 231
-2.568750 0.025699 0.000000 0.000000 -0.000000 1.000000 231 231 231
-2.650000 -0.399301 -0.000000 0.000000 -0.000000 1.000000 231 231 231
-2.600000 -0.399301 -0.000000 0.000000 -0.000000 1.000000 231 231 231
-2.631250 -0.374301 -0.000000 0.000000 -0.000000 1.000000 231 231 231
-2.562500 -0.149301 -0.000000 0.000000 -0.000000 1.000000 231 231 231
-2.537500 -0.149301 -0.000000 0.000000 -0.000000 1.000000 231 231 231
-2.525000 -0.099301 -0.000000 0.000000 -0.000000 1.000000 231 231 231
-2.606250 -0.274301 -0.000000 0.000000 -0.000000 1.000000 231 231 231
-2.625000 -0.299301 -0.000000 0.000000 -0.000000 1.000000 231 231 231
-2.575000 -0.299301 -0.000000 0.000000 -0.000000 1.000000 231 231 231
-2.512500 -0.149301 -0.000000 0.000000 -0.000000 1.000000 231 231 231
-2.537500 -0.149301 -0.000000 0.000000 -0.000000 1.000000 231 231 231
-2.550000 -0.199301 -0.000000 0.000000 -0.000000 1.000000 231 231 231
-2.575000 -0.299301 -0.000000 0.000000 -0.000000 1.000000 231 231 231
-2.593750 -0.324301 -0.000000 0.000000 -0.000000 1.000000 231 231 231
-2.562500 -0.349301 -0.000000 0.000000 -0.000000 1.000000 231 231 231
-2.537500 -0.249301 -0.000000 0.000000 -0.000000 1.000000 231 231 231
-2.525000 -0.299301 -0.000000 0.000000 -0.000000 1.000000 231 231 231
-2.512500 -0.249301 -0.000000 0.000000 -0.000000 1.000000 231 231 231
-2.512500 -0.349301 -0.000000 0.000000 -0.000000 1.000000 231 231 231
-2.543750 -0.324301 -0.000000 0.000000 -0.000000 1.000000 231 231 231
-2.500000 -0.299301 -0.000000 0.000000 -0.000000 1.000000 231 231 231
-2.512500 -0.249301 -0.000000 0.000000 -0.000000 1.000000 231 231 231
-2.531250 -0.374301 -0.000000 0.000000 -0.000000 1.000000 231 231 231
-2.512500 -0.349301 -0.000000 0.000000 -0.000000 1.000000 231 231 231
-2.500000 -0.399301 -0.000000 -0.000000 -0.000000 1.000000 231 231 231
-2.700000 0.100699 0.000000 0.000000 -0.000000 1.000000 231 231 231
-2.687500 0.050699 0.000000 0.000000 -0.000000 1.000000 231 231 231
-2.675000 0.100699 0.000000 0.000000 -0.000000 1.000000 231 231 231
-2.593750 0.275699 0.000000 0.000000 -0.000000 1.000000 231 231 231
-2.575000 0.300699 0.000000 0.000000 -0.000000 1.000000 231 231 231
-2.625000 0.300699 0.000000 0.000000 -0.000000 1.000000 231 231 231
-2.637500 -0.149301 -0.000000 0.000000 -0.000000 1.000000 231 231 231
-2.650000 -0.199301 -0.000000 0.000000 -0.000000 1.000000 231 231 231
-2.612500 -0.149301 -0.000000 0.000000 -0.000000 1.000000 231 231 231
-2.512500 0.250699 0.000000 0.000000 -0.000000 1.000000 231 231 231
-2.537500 0.250699 0.000000 0.000000 -0.000000 1.000000 231 231 231
-2.550000 0.200699 0.000000 0.000000 -0.000000 1.000000 231 231 231
-2.612500 -0.349301 -0.000000 0.000000 -0.000000 1.000000 231 231 231
-2.581250 -0.374301 -0.000000 0.000000 -0.000000 1.000000 231 231 231
-2.587500 -0.049301 -0.000000 0.000000 -0.000000 1.000000 231 231 231
-2.556250 -0.074301 -0.000000 0.000000 -0.000000 1.000000 231 231 231
-2.537500 -0.049301 -0.000000 0.000000 -0.000000 1.000000 231 231 231
-2.537500 -0.249301 -0.000000 0.000000 -0.000000 1.000000 231 231 231
-2.568750 -0.224301 -0.000000 0.000000 -0.000000 1.000000 231 231 231
-2.587500 -0.249301 -0.000000 0.000000 -0.000000 1.000000 231 231 231
-2.500000 -0.099301 -0.000000 0.000000 -0.000000 1.000000 231 231 231
-2.512500 -0.049301 -0.000000 0.000000 -0.000000 1.000000 231 231 231
-2.525000 -0.099301 -0.000000 0.000000 -0.000000 1.000000 231 231 231
-2.543750 -0.324301 -0.000000 0.000000 -0.000000 1.000000 231 231 231
-2.518750 -0.224301 -0.000000 0.000000 -0.000000 1.000000 231 231 231
-2.525000 -0.299301 -0.000000 0.000000 -0.000000 1.000000 231 231 231
-2.500000 -0.199301 -0.000000 0.000000 -0.000000 1.000000 231 231 231
-2.687500 0.050699 0.000000 0.000000 -0.000000 1.000000 231 231 231
-2.700000 0.000699 0.000000 0.000000 -0.000000 1.000000 231 231 231
-2.662500 0.050699 0.000000 0.000000 -0.000000 1.000000 231 231 231
-2.606250 0.325699 0.000000 0.000000 -0.000000 1.000000 231 231 231
-2.587500 0.350699 0.000000 0.000000 -0.000000 1.000000 231 231 231
-2.631250 -0.174301 -0.000000 0.000000 -0.000000 1.000000 231 231 231
-2.600000 -0.199301 -0.000000 0.000000 -0.000000 1.000000 231 231 231
-2.537500 0.150699 0.000000 0.000000 -0.000000 1.000000 231 231 231
-2.525000 0.100699 0.000000 0.000000 -0.000000 1.000000 231 231 231
-2.512500 0.150699 0.000000 0.000000 -0.000000 1.000000 231 231 231
-2.581250 -0.374301 -0.000000 0.000000 -0.000000 1.000000 231 231 231
-2.550000 -0.399301 -0.000000 0.000000 -0.000000 1.000000 231 231 231
-2.550000 0.000699 0.000000 -0.000000 -0.000000 1.000000 231 231 231
-2.568750 -0.024301 -0.000000 -0.000000 -0.000000 1.000000 231 231 231
-2.556250 -0.274301 -0.000000 0.000000 -0.000000 1.000000 231 231 231
-2.512500 -0.149301 -0.000000 0.000000 -0.000000 1.000000 231 231 231
-2.681250 0.025699 0.000000 0.000000 -0.000000 1.000000 231 231 231
-2.650000 0.000699 0.000000 0.000000 -0.000000 1.000000 231 231 231
-2.587500 0.350699 0.000000 0.000000 -0.000000 1.000000 231 231 231
-2.556250 0.325699 0.000000 0.000000 -0.000000 1.000000 231 231 231
-2.537500 0.350699 0.000000 0.000000 -0.000000 1.000000 231 231 231
-2.562500 -0.149301 -0.000000 0.000000 -0.000000 1.000000 231 231 231
-2.593750 -0.124301 -0.000000 0.000000 -0.000000 1.000000 231 231 231
-2.612500 -0.149301 -0.000000 0.000000 -0.000000 1.000000 231 231 231
-2.500000 0.100699 0.000000 0.000000 -0.000000 1.000000 231 231 231
-2.512500 0.150699 0.000000 0.000000 -0.000000 1.000000 231 231 231
-2.531250 -0.374301 -0.000000 0.000000 -0.000000 1.000000 231 231 231
-2.562500 -0.349301 -0.000000 0.000000 -0.000000 1.000000 231 231 231
-2.518750 -0.024301 -0.000000 0.000000 -0.000000 1.000000 231 231 231
-2.612500 0.050699 0.000000 0.000000 -0.000000 1.000000 231 231 231
-2.643750 0.075699 0.000000 0.000000 -0.000000 1.000000 231 231 231
-2.662500 0.050699 0.000000 0.000000 -0.000000 1.000000 231 231 231
-2.550000 0.400699 0.000000 -0.000000 -0.000000 1.000000 231 231 231
-2.568750 0.375699 0.000000 -0.000000 -0.000000 1.000000 231 231 231
-2.581250 -0.174301 -0.000000 0.000000 -0.000000 1.000000 231 231 231
-2.512500 0.050699 0.000000 0.000000 -0.000000 1.000000 231 231 231
-2.500000 0.000699 0.000000 0.000000 -0.000000 1.000000 231 231 231
-2.631250 0.025699 0.000000 0.000000 -0.000000 1.000000 231 231 231
-2.518750 0.375699 0.000000 0.000000 -0.000000 1.000000 231 231 231
-2.550000 -0.199301 -0.000000 0.000000 -0.000000 1.000000 231 231 231
-2.600000 0.000699 0.000000 -0.000000 -0.000000 1.000000 231 231 231
-2.500000 0.400699 0.000000 0.000000 -0.000000 1.000000 231 231 231
-2.656250 -0.124301 -0.000000 -0.000000 -0.000000 1.000000 231 231 231
-2.637500 -0.149301 -0.000000 -0.000000 -0.000000 1.000000 231 231 231
-2.625000 -0.099301 -0.000000 -0.000000 -0.000000 1.000000 231 231 231
-2.600000 0.200699 0.000000 0.000000 -0.000000 1.000000 231 231 231
-2.581250 0.225699 0.000000 0.000000 -0.000000 1.000000 231 231 231
-2.637500 -0.249301 -0.000000 0.000000 -0.000000 1.000000 231 231 231
-2.606250 -0.274301 -0.000000 0.000000 -0.000000 1.000000 231 231 231
-2.587500 -0.249301 -0.000000 0.000000 -0.000000 1.000000 231 231 231
-2.543750 0.125699 0.000000 0.000000 -0.000000 1.000000 231 231 231
-2.562500 0.150699 0.000000 0.000000 -0.000000 1.000000 231 231 231
-2.575000 0.100699 0.000000 0.000000 -0.000000 1.000000 231 231 231
-2.631250 -0.374301 -0.000000 -0.000000 -0.000000 1.000000 231 231 231
-2.612500 -0.349301 -0.000000 -0.000000 -0.000000 1.000000 231 231 231
-2.556250 -0.074301 -0.000000 0.000000 -0.000000 1.000000 231 231 231
-2.575000 -0.099301 -0.000000 0.000000 -0.000000 1.000000 231 231 231
-2.556250 -0.274301 -0.000000 0.000000 -0.000000 1.000000 231 231 231
-2.531250 -0.174301 -0.000000 0.000000 -0.000000 1.000000 231 231 231
-2.700000 0.300699 0.000000 0.000000 -0.000000 1.000000 231 231 231
-2.700000 0.200699 0.000000 0.000000 -0.000000 1.000000 231 231 231
-2.687500 0.250699 0.000000 0.000000 -0.000000 1.000000 231 231 231
-2.625000 0.300699 0.000000 -0.000000 -0.000000 1.000000 231 231 231
-2.606250 0.325699 0.000000 -0.000000 -0.000000 1.000000 231 231 231
-2.637500 0.350699 0.000000 -0.000000 -0.000000 1.000000 231 231 231
-2.587500 -0.049301 -0.000000 0.000000 -0.000000 1.000000 231 231 231
-2.612500 -0.049301 -0.000000 0.000000 -0.000000 1.000000 231 231 231
-2.625000 -0.099301 -0.000000 0.000000 -0.000000 1.000000 231 231 231
-2.500000 0.300699 0.000000 0.000000 -0.000000 1.000000 231 231 231
-2.512500 0.350699 0.000000 0.000000 -0.000000 1.000000 231 231 231
-2.525000 0.300699 0.000000 0.000000 -0.000000 1.000000 231 231 231
-2.593750 -0.324301 -0.000000 0.000000 -0.000000 1.000000 231 231 231
-2.568750 -0.024301 -0.000000 0.000000 -0.000000 1.000000 231 231 231
-2.637500 0.150699 0.000000 0.000000 -0.000000 1.000000 231 231 231
-2.662500 0.150699 0.000000 0.000000 -0.000000 1.000000 231 231 231
-2.675000 0.100699 0.000000 0.000000 -0.000000 1.000000 231 231 231
-2.650000 0.400699 0.000000 -0.000000 -0.000000 1.000000 231 231 231
-2.668750 0.375699 0.000000 -0.000000 -0.000000 1.000000 231 231 231
-2.637500 0.350699 0.000000 -0.000000 -0.000000 1.000000 231 231 231
-2.581250 -0.174301 -0.000000 -0.000000 -0.000000 1.000000 231 231 231
-2.518750 0.175699 0.000000 -0.000000 -0.000000 1.000000 231 231 231
-2.631250 0.025699 0.000000 0.000000 -0.000000 1.000000 231 231 231
-2.568750 0.375699 0.000000 0.000000 -0.000000 1.000000 231 231 231
-2.575000 -0.099301 -0.000000 -0.000000 -0.000000 1.000000 231 231 231
-2.500000 0.200699 0.000000 0.000000 -0.000000 1.000000 231 231 231
-2.625000 0.100699 0.000000 -0.000000 -0.000000 1.000000 231 231 231
-2.600000 0.400699 0.000000 0.000000 -0.000000 1.000000 231 231 231
-2.643750 -0.074301 -0.000000 0.000000 -0.000000 1.000000 231 231 231
-2.612500 -0.049301 -0.000000 0.000000 -0.000000 1.000000 231 231 231
-2.562500 0.250699 0.000000 0.000000 -0.000000 1.000000 231 231 231
-2.537500 0.250699 0.000000 0.000000 -0.000000 1.000000 231 231 231
-2.525000 0.300699 0.000000 0.000000 -0.000000 1.000000 231 231 231
-2.600000 -0.199301 -0.000000 -0.000000 -0.000000 1.000000 231 231 231
-2.618750 -0.224301 -0.000000 -0.000000 -0.000000 1.000000 231 231 231
-2.525000 0.100699 0.000000 -0.000000 -0.000000 1.000000 231 231 231
-2.556250 0.075699 0.000000 -0.000000 -0.000000 1.000000 231 231 231
-2.537500 0.050699 0.000000 -0.000000 -0.000000 1.000000 231 231 231
-2.643750 -0.324301 -0.000000 0.000000 -0.000000 1.000000 231 231 231
-2.662500 -0.349301 -0.000000 0.000000 -0.000000 1.000000 231 231 231
-2.537500 -0.049301 -0.000000 0.000000 -0.000000 1.000000 231 231 231
-2.512500 -0.049301 -0.000000 0.000000 -0.000000 1.000000 231 231 231
-2.662500 0.250699 0.000000 0.000000 -0.000000 1.000000 231 231 231
-2.687500 0.250699 0.000000 0.000000 -0.000000 1.000000 231 231 231
-2.687500 0.350699 0.000000 0.000000 -0.000000 1.000000 231 231 231
-2.656250 0.325699 0.000000 0.000000 -0.000000 1.000000 231 231 231
-2.606250 -0.074301 -0.000000 0.000000 -0.000000 1.000000 231 231 231
-2.512500 0.250699 0.000000 0.000000 -0.000000 1.000000 231 231 231
-2.656250 0.125699 0.000000 0.000000 -0.000000 1.000000 231 231 231
-2.618750 0.375699 0.000000 0.000000 -0.000000 1.000000 231 231 231
-2.650000 0.000699 0.000000 -0.000000 -0.000000 1.000000 231 231 231
-2.681250 -0.024301 -0.000000 -0.000000 -0.000000 1.000000 231 231 231
-2.662500 -0.049301 -0.000000 -0.000000 -0.000000 1.000000 231 231 231
-2.556250 0.325699 0.000000 0.000000 -0.000000 1.000000 231 231 231
-2.575000 0.300699 0.000000 0.000000 -0.000000 1.000000 231 231 231
-2.568750 -0.224301 -0.000000 0.000000 -0.000000 1.000000 231 231 231
-2.512500 0.050699 0.000000 0.000000 -0.000000 1.000000 231 231 231
-2.650000 0.200699 0.000000 0.000000 -0.000000 1.000000 231 231 231
-2.681250 0.225699 0.000000 0.000000 -0.000000 1.000000 231 231 231
-2.668750 0.375699 0.000000 0.000000 -0.000000 1.000000 231 231 231
-2.631250 -0.024301 -0.000000 0.000000 -0.000000 1.000000 231 231 231
-2.537500 0.350699 0.000000 0.000000 -0.000000 1.000000 231 231 231
-2.512500 0.350699 0.000000 0.000000 -0.000000 1.000000 231 231 231
-2.700000 0.400699 0.000000 0.000000 -0.000000 1.000000 231 231 231
-2.662500 -0.149301 -0.000000 0.000000 -0.000000 1.000000 231 231 231
-2.675000 -0.099301 -0.000000 0.000000 -0.000000 1.000000 231 231 231
-2.687500 -0.149301 -0.000000 0.000000 -0.000000 1.000000 231 231 231
-2.568750 0.175699 0.000000 0.000000 -0.000000 1.000000 231 231 231
-2.600000 0.200699 0.000000 0.000000 -0.000000 1.000000 231 231 231
-2.637500 -0.249301 -0.000000 -0.000000 -0.000000 1.000000 231 231 231
-2.656250 -0.274301 -0.000000 -0.000000 -0.000000 1.000000 231 231 231
-2.568750 0.025699 0.000000 0.000000 -0.000000 1.000000 231 231 231
-2.550000 0.000699 0.000000 0.000000 -0.000000 1.000000 231 231 231
-2.681250 -0.374301 -0.000000 0.000000 -0.000000 1.000000 231 231 231
-2.700000 -0.399301 -0.000000 0.000000 -0.000000 1.000000 231 231 231
-2.543750 -0.124301 -0.000000 0.000000 -0.000000 1.000000 231 231 231
-2.687500 0.150699 0.000000 0.000000 -0.000000 1.000000 231 231 231
-2.662500 0.150699 0.000000 0.000000 -0.000000 1.000000 231 231 231
-2.662500 0.250699 0.000000 0.000000 -0.000000 1.000000 231 231 231
-2.631250 0.225699 0.000000 0.000000 -0.000000 1.000000 231 231 231
-2.612500 0.250699 0.000000 0.000000 -0.000000 1.000000 231 231 231
-2.593750 -0.124301 -0.000000 0.000000 -0.000000 1.000000 231 231 231
-2.531250 0.225699 0.000000 0.000000 -0.000000 1.000000 231 231 231
-2.643750 0.075699 0.000000 0.000000 -0.000000 1.000000 231 231 231
-2.618750 0.375699 0.000000 0.000000 -0.000000 1.000000 231 231 231
-2.675000 -0.099301 -0.000000 0.000000 -0.000000 1.000000 231 231 231
-2.643750 -0.074301 -0.000000 0.000000 -0.000000 1.000000 231 231 231
-2.662500 -0.049301 -0.000000 0.000000 -0.000000 1.000000 231 231 231
-2.581250 0.225699 0.000000 0.000000 -0.000000 1.000000 231 231 231
-2.562500 0.250699 0.000000 0.000000 -0.000000 1.000000 231 231 231
-2.618750 -0.224301 -0.000000 0.000000 -0.000000 1.000000 231 231 231
-2.537500 0.150699 0.000000 0.000000 -0.000000 1.000000 231 231 231
-2.687500 0.350699 0.000000 0.000000 -0.000000 1.000000 231 231 231
-2.656250 0.325699 0.000000 0.000000 -0.000000 1.000000 231 231 231
-2.631250 -0.024301 -0.000000 0.000000 -0.000000 1.000000 231 231 231
-2.543750 0.275699 0.000000 0.000000 -0.000000 1.000000 231 231 231
-2.675000 0.300699 0.000000 0.000000 -0.000000 1.000000 231 231 231
-2.675000 0.300699 0.000000 -0.000000 -0.000000 1.000000 231 231 231
-2.700000 -0.099301 -0.000000 0.000000 -0.000000 1.000000 231 231 231
-2.687500 -0.149301 -0.000000 0.000000 -0.000000 1.000000 231 231 231
-2.637500 0.150699 0.000000 0.000000 -0.000000 1.000000 231 231 231
-2.606250 0.125699 0.000000 0.000000 -0.000000 1.000000 231 231 231
-2.587500 0.150699 0.000000 0.000000 -0.000000 1.000000 231 231 231
-2.662500 -0.249301 -0.000000 0.000000 -0.000000 1.000000 231 231 231
-2.518750 0.025699 0.000000 0.000000 -0.000000 1.000000 231 231 231
-2.537500 0.050699 0.000000 0.000000 -0.000000 1.000000 231 231 231
-2.668750 0.175699 0.000000 -0.000000 -0.000000 1.000000 231 231 231
-2.643750 0.275699 0.000000 0.000000 -0.000000 1.000000 231 231 231
-2.687500 -0.049301 -0.000000 0.000000 -0.000000 1.000000 231 231 231
-2.593750 0.275699 0.000000 0.000000 -0.000000 1.000000 231 231 231
-2.612500 0.250699 0.000000 0.000000 -0.000000 1.000000 231 231 231
-2.687500 -0.049301 -0.000000 0.000000 -0.000000 1.000000 231 231 231
-2.618750 0.175699 0.000000 0.000000 -0.000000 1.000000 231 231 231
-2.650000 0.200699 0.000000 -0.000000 -0.000000 1.000000 231 231 231
-2.700000 -0.299301 -0.000000 0.000000 -0.000000 1.000000 231 231 231
-2.687500 -0.349301 -0.000000 0.000000 -0.000000 1.000000 231 231 231
-2.675000 -0.299301 -0.000000 0.000000 -0.000000 1.000000 231 231 231
-2.612500 0.050699 0.000000 0.000000 -0.000000 1.000000 231 231 231
-2.587500 0.050699 0.000000 0.000000 -0.000000 1.000000 231 231 231
-2.575000 0.100699 0.000000 0.000000 -0.000000 1.000000 231 231 231
-2.687500 -0.349301 -0.000000 0.000000 -0.000000 1.000000 231 231 231
-2.662500 -0.349301 -0.000000 0.000000 -0.000000 1.000000 231 231 231
-2.556250 0.075699 0.000000 0.000000 -0.000000 1.000000 231 231 231
-2.687500 0.150699 0.000000 0.000000 -0.000000 1.000000 231 231 231
-2.643750 0.275699 0.000000 0.000000 -0.000000 1.000000 231 231 231
-2.662500 -0.149301 -0.000000 0.000000 -0.000000 1.000000 231 231 231
-2.631250 0.225699 0.000000 0.000000 -0.000000 1.000000 231 231 231
-2.681250 -0.174301 -0.000000 0.000000 -0.000000 1.000000 231 231 231
-2.618750 0.175699 0.000000 0.000000 -0.000000 1.000000 231 231 231
-2.700000 -0.199301 -0.000000 -0.000000 -0.000000 1.000000 231 231 231
-2.625000 0.100699 0.000000 0.000000 -0.000000 1.000000 231 231 231
-2.687500 -0.249301 -0.000000 0.000000 -0.000000 1.000000 231 231 231
-2.593750 0.075699 0.000000 0.000000 -0.000000 1.000000 231 231 231
-2.668750 -0.224301 -0.000000 0.000000 -0.000000 1.000000 231 231 231
-2.606250 0.125699 0.000000 -0.000000 -0.000000 1.000000 231 231 231
3 0 1 2
3 3 4 5
3 6 7 8
3 9 10 11
3 12 13 14
3 15 16 17
3 18 19 20
3 21 22 23
3 24 25 26
3 27 28 29
3 30 31 26
3 32 33 28
3 30 26 34
3 32 28 35
3 36 30 34
3 36 32 35
3 37 38 39
3 40 41 42
3 43 44 45
3 46 47 48
3 49 13 50
3 51 52 53
3 54 55 56
3 57 58 59
3 24 26 60
3 23 27 61
3 30 62 31
3 32 63 33
3 64 65 66
3 67 41 68
3 69 44 70
3 71 72 73
3 74 13 75
3 76 77 53
3 54 56 78
3 57 59 79
3 62 24 60
3 63 23 61
3 80 65 81
3 82 83 84
3 85 86 87
3 88 89 72
3 90 91 75
3 76 53 92
3 62 54 78
3 63 57 79
3 93 94 95
3 96 97 84
3 85 87 98
3 88 72 99
3 36 90 75
3 100 76 92
3 93 95 101
3 96 84 102
3 103 85 98
3 100 88 99
3 104 93 101
3 105 96 102
3 106 107 108
3 109 4 110
3 111 112 113
3 114 115 116
3 117 13 118
3 119 120 17
3 121 56 20
3 63 122 23
3 24 19 25
3 63 27 29
3 123 124 125
3 126 127 128
3 129 130 131
3 132 133 134
3 135 19 49
3 51 53 136
3 54 103 55
3 57 100 58
3 137 138 139
3 140 141 142
3 143 87 70
3 48 71 144
3 91 74 75
3 76 10 77
3 145 95 81
3 82 84 146
3 85 147 86
3 88 148 89
3 93 149 94
3 96 150 97
3 151 108 152
3 153 154 155
3 156 157 113
3 158 159 160
3 161 162 118
3 163 17 164
3 62 121 20
3 63 21 122
3 165 166 124
3 167 168 128
3 147 169 131
3 132 134 170
3 91 135 49
3 10 51 136
3 149 171 139
3 140 142 172
3 103 143 70
3 148 48 144
3 104 145 81
3 150 82 146
3 173 174 175
3 176 177 155
3 156 113 178
3 179 158 160
3 19 161 118
3 100 163 164
3 180 181 124
3 167 128 182
3 147 129 169
3 148 132 170
3 149 137 171
3 150 140 172
3 173 175 183
3 184 155 185
3 103 156 178
3 100 179 160
3 180 165 181
3 186 167 182
3 104 173 183
3 105 184 185
3 187 188 189
3 190 4 191
3 8 192 193
3 194 10 195
3 196 197 12
3 120 198 17
3 56 18 20
3 21 59 22
3 199 39 200
3 201 202 203
3 131 45 204
3 148 205 48
3 91 49 50
3 51 120 52
3 139 66 206
3 207 142 68
3 87 69 70
3 148 71 73
3 95 80 81
3 82 41 83
3 208 209 210
3 211 4 212
3 111 113 213
3 214 48 115
3 162 117 118
3 163 119 17
3 215 186 123
3 126 128 216
3 129 104 130
3 132 105 133
3 137 180 138
3 140 186 141
3 217 175 152
3 177 218 155
3 156 44 157
3 158 116 159
3 165 219 166
3 167 220 168
3 173 65 174
3 184 176 155
3 221 222 188
3 223 224 225
3 226 6 192
3 227 228 195
3 162 196 12
3 120 15 198
3 124 199 229
3 201 203 230
3 147 131 204
3 148 46 205
3 149 139 206
3 150 207 68
3 231 208 210
3 232 233 212
3 44 111 213
3 158 214 115
3 219 215 123
3 220 126 216
3 104 217 152
3 177 153 218
3 221 188 234
3 223 225 235
3 44 226 192
3 100 227 195
3 180 124 229
3 220 201 230
3 65 231 210
3 177 232 212
3 65 221 234
3 236 223 235
3 237 238 239
3 240 241 242
3 243 197 244
3 245 116 9
3 162 12 14
3 15 23 16
3 37 39 246
3 247 203 42
3 131 43 45
3 46 134 47
3 139 64 66
3 142 67 68
3 248 2 107
3 249 236 109
3 111 8 112
3 158 114 116
3 219 123 125
3 126 41 127
3 175 151 152
3 153 4 154
3 2 187 250
3 251 225 191
3 6 8 193
3 228 194 195
3 180 199 200
3 201 236 202
3 208 108 209
3 233 211 212
3 221 252 222
3 223 253 224
3 237 239 254
3 253 255 242
3 6 243 244
3 228 245 9
3 124 37 246
3 220 247 42
3 208 248 107
3 233 249 109
3 252 2 250
3 236 251 191
3 252 237 254
3 253 240 255
3 252 256 2
3 242 5 257
3 6 244 7
3 228 9 11
3 37 65 38
3 203 40 42
3 208 106 108
3 233 109 110
3 252 187 189
3 225 190 191
3 237 197 238
3 240 10 241
3 252 0 256
3 253 242 257
3 0 239 1
3 242 3 5
