ply
format ascii 1.0
comment Created by Blender 2.79 (sub 0) - www.blender.org, source file: 'marbled_bathroom_refined_0.001_d_m.blend'
element vertex 308
property float x
property float y
property float z
property float nx
property float ny
property float nz
property uchar red
property uchar green
property uchar blue
element face 212
property list uchar uint vertex_indices
end_header
0.840398 -1.852018 1.107416 -0.000000 -1.000000 -0.000000 231 231 231
0.842413 -1.852018 1.103560 -0.000000 -1.000000 -0.000000 231 231 231
0.842413 -1.852018 1.107416 -0.000000 -1.000000 -0.000000 231 231 231
0.856340 -1.852018 1.118600 1.000000 0.000000 0.000000 231 231 231
0.856340 -1.849159 1.107416 1.000000 0.000000 0.000000 231 231 231
0.856340 -1.849159 1.118600 1.000000 0.000000 0.000000 231 231 231
0.840398 -1.852018 1.229149 -0.000000 -1.000000 -0.000000 231 231 231
0.842413 -1.852018 1.225293 -0.000000 -1.000000 -0.000000 231 231 231
0.842413 -1.852018 1.229149 -0.000000 -1.000000 -0.000000 231 231 231
0.840398 -1.852018 1.118600 -0.000000 -1.000000 -0.000000 231 231 231
0.842413 -1.852018 1.118600 -0.000000 -1.000000 -0.000000 231 231 231
0.842413 -1.849159 1.107416 -0.000000 1.000000 0.000000 231 231 231
0.840398 -1.849159 1.103560 -0.000000 1.000000 0.000000 231 231 231
0.840398 -1.849159 1.107416 -0.000000 1.000000 0.000000 231 231 231
0.854325 -1.852018 1.107416 -0.000000 -1.000000 -0.000000 231 231 231
0.856340 -1.852018 1.103560 -0.000000 -1.000000 -0.000000 231 231 231
0.856340 -1.852018 1.107416 -0.000000 -1.000000 -0.000000 231 231 231
0.854325 -1.852018 1.103560 -0.000000 -1.000000 -0.000000 231 231 231
0.842413 -1.849159 1.118600 -0.000000 1.000000 0.000000 231 231 231
0.840398 -1.849159 1.118600 -0.000000 1.000000 0.000000 231 231 231
0.854325 -1.849159 1.118600 -0.000000 1.000000 0.000000 231 231 231
0.854325 -1.852018 1.229149 -0.000000 -1.000000 -0.000000 231 231 231
0.856340 -1.852018 1.225293 -0.000000 -1.000000 -0.000000 231 231 231
0.856340 -1.852018 1.229149 -0.000000 -1.000000 -0.000000 231 231 231
0.854325 -1.852018 1.225293 -0.000000 -1.000000 -0.000000 231 231 231
0.854325 -1.852018 1.118600 -0.000000 -1.000000 -0.000000 231 231 231
0.856340 -1.852018 1.118600 -0.000000 -1.000000 -0.000000 231 231 231
0.848463 -1.852158 1.221440 0.000000 -0.999850 -0.017306 231 231 231
0.846562 -1.852158 1.221440 0.000000 -0.999850 -0.017306 231 231 231
0.847512 -1.852140 1.220400 0.000000 -0.999850 -0.017306 231 231 231
0.846105 -1.852140 1.223798 -0.004122 -0.999942 0.009950 231 231 231
0.847073 -1.852158 1.222390 -0.004122 -0.999942 0.009950 231 231 231
0.847512 -1.852140 1.224381 -0.004122 -0.999942 0.009950 231 231 231
0.848007 -1.852158 1.222884 0.000000 -1.000000 0.000000 231 231 231
0.847073 -1.852158 1.222390 0.000000 -1.000000 0.000000 231 231 231
0.846562 -1.852158 1.221440 0.000000 -1.000000 0.000000 231 231 231
0.847512 -1.852140 1.224381 -0.005413 -0.999933 0.010234 231 231 231
0.847073 -1.852158 1.222390 -0.005413 -0.999933 0.010234 231 231 231
0.848007 -1.852158 1.222884 -0.005413 -0.999933 0.010234 231 231 231
0.845522 -1.852140 1.222390 -0.011605 -0.999921 0.004805 231 231 231
0.847073 -1.852158 1.222390 -0.011605 -0.999921 0.004805 231 231 231
0.846105 -1.852140 1.223798 -0.011605 -0.999921 0.004805 231 231 231
0.845522 -1.852140 1.111015 -0.013938 -0.999886 0.005775 231 231 231
0.847018 -1.852158 1.111509 -0.013938 -0.999886 0.005775 231 231 231
0.846105 -1.852140 1.112422 -0.013938 -0.999886 0.005775 231 231 231
0.848856 -1.852158 1.111015 -0.110976 -0.992762 0.045907 231 231 231
0.847512 -1.852028 1.110576 -0.110976 -0.992762 0.045907 231 231 231
0.848463 -1.852158 1.110065 -0.110976 -0.992762 0.045907 231 231 231
0.847018 -1.852158 1.111509 0.162364 -0.985398 -0.051271 231 231 231
0.846562 -1.852158 1.110065 0.162364 -0.985398 -0.051271 231 231 231
0.847512 -1.852028 1.110576 0.162364 -0.985398 -0.051271 231 231 231
0.848463 -1.852158 1.111965 -0.084816 -0.995779 -0.035085 231 231 231
0.847512 -1.852028 1.110576 -0.084816 -0.995779 -0.035085 231 231 231
0.848856 -1.852158 1.111015 -0.084816 -0.995779 -0.035085 231 231 231
0.856340 -1.852018 1.180440 1.000000 0.000000 0.000000 231 231 231
0.856340 -1.849159 1.180440 1.000000 0.000000 0.000000 231 231 231
0.840398 -1.852018 1.225293 -0.000000 -1.000000 -0.000000 231 231 231
0.842413 -1.852018 1.214109 -0.000000 -1.000000 -0.000000 231 231 231
0.840398 -1.852018 1.180440 -0.004793 -0.999989 -0.000156 231 231 231
0.842413 -1.852018 1.118600 -0.004793 -0.999989 -0.000156 231 231 231
0.843109 -1.852031 1.180440 -0.004793 -0.999989 -0.000156 231 231 231
0.840398 -1.849159 1.225293 -1.000000 0.000000 0.000000 231 231 231
0.840398 -1.852018 1.214109 -1.000000 0.000000 0.000000 231 231 231
0.840398 -1.852018 1.225293 -1.000000 0.000000 0.000000 231 231 231
0.842413 -1.849159 1.180440 -0.000000 1.000000 0.000000 231 231 231
0.840398 -1.849159 1.180440 -0.000000 1.000000 0.000000 231 231 231
0.854325 -1.849159 1.225293 -0.000000 1.000000 0.000000 231 231 231
0.842413 -1.849159 1.214109 -0.000000 1.000000 0.000000 231 231 231
0.842413 -1.849159 1.225293 -0.000000 1.000000 0.000000 231 231 231
0.854325 -1.849159 1.180440 -0.000000 1.000000 0.000000 231 231 231
0.856340 -1.852018 1.214109 -0.000000 -1.000000 -0.000000 231 231 231
0.856340 -1.852018 1.180440 0.000000 -1.000000 0.000000 231 231 231
0.854325 -1.852018 1.214109 -0.000000 -1.000000 -0.000000 231 231 231
0.854325 -1.852018 1.118600 -0.000000 0.000000 1.000000 231 231 231
0.842413 -1.850929 1.118600 -0.000000 0.000000 1.000000 231 231 231
0.842413 -1.852018 1.118600 -0.000000 0.000000 1.000000 231 231 231
0.842413 -1.850929 1.180440 -0.000000 -1.000000 -0.000000 231 231 231
0.854325 -1.850929 1.118600 -0.000000 -1.000000 -0.000000 231 231 231
0.854325 -1.850929 1.180440 -0.000000 -1.000000 -0.000000 231 231 231
0.842413 -1.852018 1.214109 -0.000000 0.000000 -1.000000 231 231 231
0.854325 -1.850929 1.214109 -0.000000 0.000000 -1.000000 231 231 231
0.854325 -1.852018 1.214109 -0.000000 0.000000 -1.000000 231 231 231
0.842413 -1.852018 1.118600 0.845444 0.533981 -0.009403 231 231 231
0.842413 -1.850929 1.180440 0.845444 0.533981 -0.009403 231 231 231
0.843109 -1.852031 1.180440 0.845444 0.533981 -0.009403 231 231 231
0.854325 -1.852018 1.214109 -0.840281 0.531493 0.106966 231 231 231
0.854325 -1.850929 1.208698 -0.840281 0.531493 0.106966 231 231 231
0.853628 -1.852031 1.208698 -0.840281 0.531493 0.106966 231 231 231
0.856340 -1.849159 1.214109 -0.000000 1.000000 0.000000 231 231 231
0.854325 -1.849159 1.208698 -0.000000 1.000000 0.000000 231 231 231
0.854325 -1.849159 1.214109 -0.000000 1.000000 0.000000 231 231 231
0.842413 -1.852018 1.214109 -0.004793 -0.999987 0.001785 231 231 231
0.840398 -1.852018 1.208698 -0.004793 -0.999987 0.001785 231 231 231
0.843109 -1.852031 1.208698 -0.004793 -0.999987 0.001785 231 231 231
0.842413 -1.849159 1.208698 -0.000000 1.000000 0.000000 231 231 231
0.856340 -1.852018 1.208698 -0.000000 -1.000000 -0.000000 231 231 231
0.842413 -1.850929 1.214109 -0.000000 -1.000000 -0.000000 231 231 231
0.854325 -1.850929 1.208698 -0.000000 -1.000000 -0.000000 231 231 231
0.854325 -1.850929 1.214109 -0.000000 -1.000000 -0.000000 231 231 231
0.842413 -1.852018 1.214109 1.000000 0.000000 0.000000 231 231 231
0.842413 -1.850929 1.208698 1.000000 0.000000 0.000000 231 231 231
0.842413 -1.850929 1.214109 1.000000 0.000000 0.000000 231 231 231
0.856340 -1.852018 1.198566 1.000000 0.000000 0.000000 231 231 231
0.856340 -1.849159 1.198566 1.000000 0.000000 0.000000 231 231 231
0.840398 -1.852018 1.198566 -0.004793 -0.999989 -0.000000 231 231 231
0.843109 -1.852031 1.180440 -0.004793 -0.999989 -0.000000 231 231 231
0.843109 -1.852031 1.198566 -0.004793 -0.999989 -0.000000 231 231 231
0.854325 -1.849159 1.198566 -0.000000 1.000000 0.000000 231 231 231
0.842413 -1.849159 1.198566 -0.000000 1.000000 0.000000 231 231 231
0.853628 -1.852031 1.198566 0.004791 -0.999989 0.000000 231 231 231
0.856340 -1.852018 1.180440 0.004791 -0.999989 0.000000 231 231 231
0.856340 -1.852018 1.198566 0.004791 -0.999989 0.000000 231 231 231
0.854325 -1.850929 1.180440 0.000000 0.000000 -1.000000 231 231 231
0.843109 -1.852031 1.180440 0.000000 0.000000 -1.000000 231 231 231
0.842413 -1.850929 1.180440 0.000000 0.000000 -1.000000 231 231 231
0.854325 -1.852018 1.118600 -1.000000 -0.000000 0.000000 231 231 231
0.854325 -1.850929 1.180440 -1.000000 -0.000000 0.000000 231 231 231
0.854325 -1.850929 1.118600 -1.000000 -0.000000 0.000000 231 231 231
0.843109 -1.852031 1.198566 -0.000000 -1.000000 -0.000000 231 231 231
0.853628 -1.852031 1.180440 -0.000000 -1.000000 -0.000000 231 231 231
0.853628 -1.852031 1.198566 -0.000000 -1.000000 -0.000000 231 231 231
0.842413 -1.850929 1.180440 -0.845481 -0.534005 0.000000 231 231 231
0.843109 -1.852031 1.198566 -0.845481 -0.534005 0.000000 231 231 231
0.842413 -1.850929 1.198566 -0.845481 -0.534005 0.000000 231 231 231
0.854325 -1.850929 1.208698 0.845130 -0.534560 0.000000 231 231 231
0.853628 -1.852031 1.203111 0.845130 -0.534560 0.000000 231 231 231
0.854325 -1.850929 1.203111 0.845130 -0.534560 0.000000 231 231 231
0.842413 -1.850929 1.208698 0.000000 0.000000 1.000000 231 231 231
0.853628 -1.852031 1.208698 0.000000 0.000000 1.000000 231 231 231
0.854325 -1.850929 1.208698 0.000000 0.000000 1.000000 231 231 231
0.856340 -1.849159 1.208698 -0.000000 1.000000 0.000000 231 231 231
0.854325 -1.849159 1.203111 -0.000000 1.000000 0.000000 231 231 231
0.840398 -1.852018 1.208698 -0.004793 -0.999989 -0.000000 231 231 231
0.843109 -1.852031 1.203111 -0.004793 -0.999989 -0.000000 231 231 231
0.843109 -1.852031 1.208698 -0.004793 -0.999989 -0.000000 231 231 231
0.840398 -1.849159 1.203111 -0.000000 1.000000 0.000000 231 231 231
0.840398 -1.849159 1.208698 -0.000000 1.000000 0.000000 231 231 231
0.842413 -1.849159 1.203111 -0.000000 1.000000 0.000000 231 231 231
0.853628 -1.852031 1.208698 0.004791 -0.999988 0.000000 231 231 231
0.856340 -1.852018 1.203111 0.004791 -0.999988 0.000000 231 231 231
0.856340 -1.852018 1.208698 0.004791 -0.999988 0.000000 231 231 231
0.843109 -1.852031 1.208698 -0.000000 -1.000000 -0.000000 231 231 231
0.853628 -1.852031 1.203111 -0.000000 -1.000000 -0.000000 231 231 231
0.853628 -1.852031 1.208698 -0.000000 -1.000000 -0.000000 231 231 231
0.842413 -1.850929 1.203111 -0.845481 -0.534005 0.000000 231 231 231
0.843109 -1.852031 1.208698 -0.845481 -0.534005 0.000000 231 231 231
0.842413 -1.850929 1.208698 -0.845481 -0.534005 0.000000 231 231 231
0.853628 -1.852031 1.198566 0.845130 -0.534560 0.000000 231 231 231
0.854325 -1.850929 1.198566 0.845130 -0.534560 0.000000 231 231 231
0.840398 -1.852018 1.203111 -0.004793 -0.999988 -0.000000 231 231 231
0.843109 -1.852031 1.198566 -0.004793 -0.999988 -0.000000 231 231 231
0.843109 -1.852031 1.203111 -0.004793 -0.999988 -0.000000 231 231 231
0.853628 -1.852031 1.203111 0.004791 -0.999988 0.000000 231 231 231
0.856340 -1.852018 1.198566 0.004791 -0.999988 0.000000 231 231 231
0.843109 -1.852031 1.198566 0.000000 -0.642096 -0.766625 231 231 231
0.851816 -1.852966 1.199349 0.000000 -0.642096 -0.766625 231 231 231
0.844921 -1.852966 1.199349 0.000000 -0.642096 -0.766625 231 231 231
0.843109 -1.852031 1.203111 -0.845481 -0.534005 0.000000 231 231 231
0.853628 -1.852031 1.180440 0.845130 -0.534560 0.000000 231 231 231
0.854325 -1.850929 1.180440 0.845130 -0.534560 0.000000 231 231 231
0.844921 -1.852966 1.202328 -0.000000 -1.000000 -0.000000 231 231 231
0.851816 -1.852966 1.199349 -0.000000 -1.000000 -0.000000 231 231 231
0.851816 -1.852966 1.202328 -0.000000 -1.000000 -0.000000 231 231 231
0.843109 -1.852031 1.198566 -0.458543 -0.888672 0.000000 231 231 231
0.844921 -1.852966 1.202328 -0.458543 -0.888672 0.000000 231 231 231
0.843109 -1.852031 1.203111 -0.458543 -0.888672 0.000000 231 231 231
0.853628 -1.852031 1.203111 0.458543 -0.888672 0.000000 231 231 231
0.851816 -1.852966 1.199349 0.458543 -0.888672 0.000000 231 231 231
0.853628 -1.852031 1.198566 0.458543 -0.888672 0.000000 231 231 231
0.853628 -1.852031 1.203111 0.000000 -0.642096 0.766625 231 231 231
0.844921 -1.852966 1.202328 0.000000 -0.642096 0.766625 231 231 231
0.851816 -1.852966 1.202328 0.000000 -0.642096 0.766625 231 231 231
0.856340 -1.849159 1.107416 -0.000000 1.000000 0.000000 231 231 231
0.854325 -1.849159 1.103560 -0.000000 1.000000 0.000000 231 231 231
0.854325 -1.849159 1.107416 -0.000000 1.000000 0.000000 231 231 231
0.856340 -1.852018 1.107416 1.000000 0.000000 0.000000 231 231 231
0.856340 -1.849159 1.103560 1.000000 0.000000 0.000000 231 231 231
0.856340 -1.849159 1.229149 -0.000000 1.000000 0.000000 231 231 231
0.854325 -1.849159 1.229149 -0.000000 1.000000 0.000000 231 231 231
0.856340 -1.849159 1.118600 -0.000000 1.000000 0.000000 231 231 231
0.856340 -1.852018 1.229149 1.000000 0.000000 0.000000 231 231 231
0.856340 -1.849159 1.225293 1.000000 0.000000 0.000000 231 231 231
0.856340 -1.849159 1.229149 1.000000 0.000000 0.000000 231 231 231
0.840398 -1.849159 1.107416 -1.000000 0.000000 0.000000 231 231 231
0.840398 -1.852018 1.103560 -1.000000 0.000000 0.000000 231 231 231
0.840398 -1.852018 1.107416 -1.000000 0.000000 0.000000 231 231 231
0.854325 -1.849159 1.103560 0.000000 0.000000 -1.000000 231 231 231
0.856340 -1.852018 1.103560 0.000000 0.000000 -1.000000 231 231 231
0.854325 -1.852018 1.103560 0.000000 0.000000 -1.000000 231 231 231
0.842413 -1.849159 1.229149 0.000000 -0.000000 1.000000 231 231 231
0.840398 -1.852018 1.229149 0.000000 -0.000000 1.000000 231 231 231
0.842413 -1.852018 1.229149 0.000000 -0.000000 1.000000 231 231 231
0.840398 -1.849159 1.229149 -1.000000 0.000000 0.000000 231 231 231
0.840398 -1.852018 1.229149 -1.000000 0.000000 0.000000 231 231 231
0.840398 -1.849159 1.118600 -1.000000 0.000000 0.000000 231 231 231
0.840398 -1.852018 1.118600 -1.000000 0.000000 0.000000 231 231 231
0.842413 -1.849159 1.103560 -0.000000 1.000000 0.000000 231 231 231
0.842413 -1.849159 1.229149 -0.000000 1.000000 0.000000 231 231 231
0.840398 -1.849159 1.225293 -0.000000 1.000000 0.000000 231 231 231
0.840398 -1.849159 1.229149 -0.000000 1.000000 0.000000 231 231 231
0.840398 -1.849159 1.103560 0.000000 0.000000 -1.000000 231 231 231
0.842413 -1.852018 1.103560 0.000000 0.000000 -1.000000 231 231 231
0.840398 -1.852018 1.103560 0.000000 0.000000 -1.000000 231 231 231
0.842413 -1.849159 1.103560 0.000000 0.000000 -1.000000 231 231 231
0.856340 -1.849159 1.229149 0.000000 -0.000000 1.000000 231 231 231
0.854325 -1.852018 1.229149 0.000000 -0.000000 1.000000 231 231 231
0.856340 -1.852018 1.229149 0.000000 -0.000000 1.000000 231 231 231
0.854325 -1.849159 1.229149 0.000000 -0.000000 1.000000 231 231 231
0.847512 -1.852140 1.224381 0.005768 -0.999886 0.013931 231 231 231
0.848007 -1.852158 1.222884 0.005768 -0.999886 0.013931 231 231 231
0.848920 -1.852140 1.223798 0.005768 -0.999886 0.013931 231 231 231
0.848920 -1.852140 1.223798 0.013937 -0.999886 0.005771 231 231 231
0.848007 -1.852158 1.222884 0.013937 -0.999886 0.005771 231 231 231
0.849503 -1.852140 1.222390 0.013937 -0.999886 0.005771 231 231 231
0.849503 -1.852140 1.222390 0.013432 -0.999901 0.004241 231 231 231
0.848007 -1.852158 1.222884 0.013432 -0.999901 0.004241 231 231 231
0.848463 -1.852158 1.221440 0.013432 -0.999901 0.004241 231 231 231
0.846105 -1.852140 1.112422 -0.005776 -0.999886 0.013938 231 231 231
0.847018 -1.852158 1.111509 -0.005776 -0.999886 0.013938 231 231 231
0.847512 -1.852140 1.113005 -0.005776 -0.999886 0.013938 231 231 231
0.847512 -1.852140 1.109024 0.097262 -0.992680 0.071597 231 231 231
0.847512 -1.852028 1.110576 0.097262 -0.992680 0.071597 231 231 231
0.846562 -1.852158 1.110065 0.097262 -0.992680 0.071597 231 231 231
0.848463 -1.852158 1.110065 -0.097160 -0.992690 0.071598 231 231 231
0.847512 -1.852028 1.110576 -0.097160 -0.992690 0.071598 231 231 231
0.847512 -1.852140 1.109024 -0.097160 -0.992690 0.071598 231 231 231
0.847512 -1.852140 1.113005 -0.004238 -0.999901 0.013430 231 231 231
0.847018 -1.852158 1.111509 -0.004238 -0.999901 0.013430 231 231 231
0.848463 -1.852158 1.111965 -0.004238 -0.999901 0.013430 231 231 231
0.856340 -1.849159 1.225293 -0.000000 1.000000 0.000000 231 231 231
0.856340 -1.849159 1.180440 -0.000000 1.000000 0.000000 231 231 231
0.856340 -1.852018 1.225293 1.000000 0.000000 0.000000 231 231 231
0.856340 -1.849159 1.214109 1.000000 0.000000 0.000000 231 231 231
0.840398 -1.849159 1.180440 -1.000000 0.000000 0.000000 231 231 231
0.840398 -1.852018 1.180440 -1.000000 0.000000 0.000000 231 231 231
0.840398 -1.849159 1.214109 -0.000000 1.000000 0.000000 231 231 231
0.856340 -1.852018 1.214109 1.000000 0.000000 0.000000 231 231 231
0.856340 -1.849159 1.208698 1.000000 0.000000 0.000000 231 231 231
0.840398 -1.849159 1.214109 -1.000000 0.000000 0.000000 231 231 231
0.840398 -1.852018 1.208698 -1.000000 0.000000 0.000000 231 231 231
0.856340 -1.849159 1.198566 -0.000000 1.000000 0.000000 231 231 231
0.840398 -1.849159 1.198566 -1.000000 0.000000 0.000000 231 231 231
0.840398 -1.852018 1.198566 -1.000000 0.000000 0.000000 231 231 231
0.840398 -1.849159 1.198566 -0.000000 1.000000 0.000000 231 231 231
0.856340 -1.852018 1.208698 1.000000 0.000000 0.000000 231 231 231
0.856340 -1.849159 1.203111 1.000000 0.000000 0.000000 231 231 231
0.840398 -1.849159 1.208698 -1.000000 0.000000 0.000000 231 231 231
0.840398 -1.852018 1.203111 -1.000000 0.000000 0.000000 231 231 231
0.856340 -1.849159 1.203111 -0.000000 1.000000 0.000000 231 231 231
0.856340 -1.852018 1.203111 1.000000 0.000000 0.000000 231 231 231
0.840398 -1.849159 1.203111 -1.000000 0.000000 0.000000 231 231 231
0.840398 -1.852018 1.103560 0.000000 -1.000000 0.000000 231 231 231
0.848463 -1.852158 1.221440 0.000000 -1.000000 0.000000 231 231 231
0.845522 -1.852140 1.222390 -0.011605 -0.999913 0.006241 231 231 231
0.846562 -1.852158 1.221440 -0.011605 -0.999913 0.006241 231 231 231
0.847073 -1.852158 1.222390 -0.011605 -0.999913 0.006241 231 231 231
0.845522 -1.852140 1.111015 -0.013432 -0.999901 0.004241 231 231 231
0.846562 -1.852158 1.110065 -0.013432 -0.999901 0.004241 231 231 231
0.847018 -1.852158 1.111509 -0.013432 -0.999901 0.004241 231 231 231
0.848463 -1.852158 1.111965 0.037367 -0.992261 -0.118415 231 231 231
0.847018 -1.852158 1.111509 0.037367 -0.992261 -0.118415 231 231 231
0.847512 -1.852028 1.110576 0.037367 -0.992261 -0.118415 231 231 231
0.840398 -1.852018 1.214109 0.000000 -1.000000 0.000000 231 231 231
0.840398 -1.852018 1.180440 0.000000 -1.000000 0.000000 231 231 231
0.856340 -1.852018 1.180440 0.004791 -0.999989 -0.000156 231 231 231
0.853628 -1.852031 1.180440 0.004791 -0.999989 -0.000156 231 231 231
0.854325 -1.852018 1.118600 0.004791 -0.999989 -0.000156 231 231 231
0.854325 -1.850929 1.118600 -0.000000 0.000000 1.000000 231 231 231
0.842413 -1.850929 1.118600 0.000000 -1.000000 0.000000 231 231 231
0.842413 -1.850929 1.214109 -0.000000 -0.000000 -1.000000 231 231 231
0.842413 -1.852018 1.118600 1.000000 0.000000 0.000000 231 231 231
0.842413 -1.850929 1.118600 1.000000 0.000000 0.000000 231 231 231
0.842413 -1.850929 1.180440 1.000000 0.000000 0.000000 231 231 231
0.854325 -1.852018 1.214109 -1.000000 0.000000 0.000000 231 231 231
0.854325 -1.850929 1.214109 -1.000000 0.000000 0.000000 231 231 231
0.854325 -1.850929 1.208698 -1.000000 0.000000 0.000000 231 231 231
0.840398 -1.852018 1.208698 0.000000 -1.000000 0.000000 231 231 231
0.854325 -1.852018 1.214109 0.004791 -0.999987 0.001784 231 231 231
0.853628 -1.852031 1.208698 0.004791 -0.999987 0.001784 231 231 231
0.856340 -1.852018 1.208698 0.004791 -0.999987 0.001784 231 231 231
0.842413 -1.850929 1.208698 0.000000 -1.000000 0.000000 231 231 231
0.842413 -1.852018 1.214109 0.840640 0.530948 0.106856 231 231 231
0.843109 -1.852031 1.208698 0.840640 0.530948 0.106856 231 231 231
0.842413 -1.850929 1.208698 0.840640 0.530948 0.106856 231 231 231
0.840398 -1.852018 1.180440 -0.004793 -0.999989 0.000000 231 231 231
0.853628 -1.852031 1.180440 0.004791 -0.999989 0.000000 231 231 231
0.853628 -1.852031 1.180440 0.000000 0.000000 -1.000000 231 231 231
0.854325 -1.852018 1.118600 -0.845093 0.534537 -0.009413 231 231 231
0.853628 -1.852031 1.180440 -0.845093 0.534537 -0.009413 231 231 231
0.854325 -1.850929 1.180440 -0.845093 0.534537 -0.009413 231 231 231
0.843109 -1.852031 1.180440 0.000000 -1.000000 0.000000 231 231 231
0.843109 -1.852031 1.180440 -0.845481 -0.534005 -0.000000 231 231 231
0.853628 -1.852031 1.208698 0.845130 -0.534560 0.000000 231 231 231
0.843109 -1.852031 1.208698 0.000000 0.000000 1.000000 231 231 231
0.840398 -1.852018 1.203111 -0.004793 -0.999989 0.000000 231 231 231
0.843109 -1.852031 1.203111 0.000000 -1.000000 0.000000 231 231 231
0.840398 -1.852018 1.198566 -0.004793 -0.999988 0.000000 231 231 231
0.853628 -1.852031 1.198566 0.004791 -0.999988 0.000000 231 231 231
0.853628 -1.852031 1.198566 -0.000000 -0.642096 -0.766625 231 231 231
0.844921 -1.852966 1.199349 0.000000 -1.000000 0.000000 231 231 231
0.844921 -1.852966 1.199349 -0.458543 -0.888672 -0.000000 231 231 231
0.851816 -1.852966 1.202328 0.458543 -0.888672 0.000000 231 231 231
0.843109 -1.852031 1.203111 0.000000 -0.642096 0.766625 231 231 231
0.856340 -1.849159 1.103560 0.000000 1.000000 0.000000 231 231 231
0.856340 -1.852018 1.103560 1.000000 0.000000 -0.000000 231 231 231
0.840398 -1.849159 1.103560 -1.000000 0.000000 0.000000 231 231 231
0.856340 -1.849159 1.103560 0.000000 0.000000 -1.000000 231 231 231
0.840398 -1.849159 1.229149 0.000000 0.000000 1.000000 231 231 231
3 0 1 2
3 3 4 5
3 6 7 8
3 9 2 10
3 11 12 13
3 14 15 16
3 2 17 14
3 18 13 19
3 20 11 18
3 21 22 23
3 8 24 21
3 25 16 26
3 10 14 25
3 27 28 29
3 30 31 32
3 33 34 35
3 36 37 38
3 39 40 41
3 42 43 44
3 45 46 47
3 48 49 50
3 51 52 53
3 54 5 55
3 56 57 7
3 58 59 60
3 61 62 63
3 64 19 65
3 66 67 68
3 69 18 64
3 24 70 22
3 71 25 26
3 7 72 24
3 73 74 75
3 76 77 78
3 79 80 81
3 82 83 84
3 85 86 87
3 88 89 90
3 91 92 93
3 90 94 67
3 72 95 70
3 96 97 98
3 99 100 101
3 102 55 103
3 104 105 106
3 107 64 108
3 109 110 111
3 112 113 114
3 115 116 117
3 118 119 120
3 121 122 123
3 124 125 126
3 127 128 129
3 130 131 89
3 132 133 134
3 94 135 136
3 89 137 94
3 138 139 140
3 141 142 143
3 144 145 146
3 126 147 148
3 149 150 151
3 131 108 137
3 152 153 139
3 154 155 156
3 123 157 144
3 148 158 159
3 160 161 162
3 163 164 165
3 166 167 168
3 169 170 171
3 172 173 174
3 175 176 4
3 177 66 178
3 179 174 20
3 180 181 182
3 183 184 185
3 186 187 188
3 189 190 191
3 192 63 193
3 194 185 195
3 174 196 11
3 197 198 199
3 178 68 197
3 200 201 202
3 203 188 201
3 204 205 206
3 207 191 205
3 208 209 210
3 211 212 213
3 214 215 216
3 217 218 219
3 220 221 222
3 223 224 225
3 226 227 228
3 229 90 66
3 230 20 69
3 231 232 181
3 233 195 234
3 68 235 198
3 236 237 232
3 238 239 62
3 67 136 235
3 240 69 107
3 241 234 242
3 108 65 243
3 244 245 237
3 246 247 239
3 248 107 131
3 249 103 245
3 250 242 247
3 137 243 135
3 0 251 1
3 3 175 4
3 6 56 7
3 9 0 2
3 11 196 12
3 14 17 15
3 2 1 17
3 18 11 13
3 20 174 11
3 21 24 22
3 8 7 24
3 25 14 16
3 10 2 14
3 252 33 35
3 253 254 255
3 256 257 258
3 259 260 261
3 54 3 5
3 56 262 57
3 263 9 10
3 61 238 62
3 64 18 19
3 66 90 67
3 69 20 18
3 24 72 70
3 264 265 266
3 7 57 72
3 73 267 74
3 76 268 77
3 79 269 80
3 270 271 272
3 273 274 275
3 88 130 89
3 57 262 276
3 90 89 94
3 277 278 279
3 96 280 97
3 281 282 283
3 102 54 55
3 104 284 105
3 107 69 64
3 109 285 110
3 112 286 113
3 287 288 289
3 118 290 119
3 121 291 122
3 124 292 125
3 127 293 128
3 130 248 131
3 132 294 133
3 94 137 135
3 89 131 137
3 138 152 139
3 141 295 142
3 144 157 145
3 126 125 147
3 149 296 150
3 131 107 108
3 152 297 153
3 154 298 155
3 123 122 157
3 148 147 158
3 160 299 161
3 163 300 164
3 166 301 167
3 169 302 170
3 172 303 173
3 175 304 176
3 177 229 66
3 179 172 174
3 180 231 181
3 183 305 184
3 186 306 187
3 189 307 190
3 192 61 63
3 194 183 185
3 174 173 196
3 197 68 198
3 178 66 68
3 200 203 201
3 203 186 188
3 204 207 205
3 207 189 191
3 229 88 90
3 230 179 20
3 231 236 232
3 233 194 195
3 68 67 235
3 236 244 237
3 238 246 239
3 67 94 136
3 240 230 69
3 241 233 234
3 108 64 65
3 244 249 245
3 246 250 247
3 248 240 107
3 249 102 103
3 250 241 242
3 137 108 243
