ply
format ascii 1.0
comment Created by Blender 2.79 (sub 0) - www.blender.org, source file: 'marbled_bathroom_refined_0.001_d_m.blend'
element vertex 304
property float x
property float y
property float z
property float nx
property float ny
property float nz
property uchar red
property uchar green
property uchar blue
element face 212
property list uchar uint vertex_indices
end_header
-1.069603 -1.812518 1.107416 -0.000000 -1.000000 -0.000000 231 231 231
-1.067588 -1.812518 1.103560 -0.000000 -1.000000 -0.000000 231 231 231
-1.067588 -1.812518 1.107416 -0.000000 -1.000000 -0.000000 231 231 231
-1.053661 -1.812518 1.118600 1.000000 0.000000 0.000000 231 231 231
-1.053661 -1.809659 1.107416 1.000000 0.000000 0.000000 231 231 231
-1.053661 -1.809659 1.118600 1.000000 0.000000 0.000000 231 231 231
-1.069603 -1.812518 1.229149 -0.000000 -1.000000 -0.000000 231 231 231
-1.067588 -1.812518 1.225293 -0.000000 -1.000000 -0.000000 231 231 231
-1.067588 -1.812518 1.229149 -0.000000 -1.000000 -0.000000 231 231 231
-1.069603 -1.812518 1.118600 -0.000000 -1.000000 -0.000000 231 231 231
-1.067588 -1.812518 1.118600 -0.000000 -1.000000 -0.000000 231 231 231
-1.067588 -1.809659 1.107416 -0.000000 1.000000 0.000000 231 231 231
-1.069603 -1.809659 1.103560 -0.000000 1.000000 0.000000 231 231 231
-1.069603 -1.809659 1.107416 -0.000000 1.000000 0.000000 231 231 231
-1.055676 -1.812518 1.107416 -0.000000 -1.000000 -0.000000 231 231 231
-1.053661 -1.812518 1.103560 -0.000000 -1.000000 -0.000000 231 231 231
-1.053661 -1.812518 1.107416 -0.000000 -1.000000 -0.000000 231 231 231
-1.055676 -1.812518 1.103560 -0.000000 -1.000000 -0.000000 231 231 231
-1.067588 -1.809659 1.118600 -0.000000 1.000000 0.000000 231 231 231
-1.069603 -1.809659 1.118600 -0.000000 1.000000 0.000000 231 231 231
-1.055676 -1.809659 1.118600 -0.000000 1.000000 0.000000 231 231 231
-1.055676 -1.812518 1.229149 -0.000000 -1.000000 -0.000000 231 231 231
-1.053661 -1.812518 1.225293 -0.000000 -1.000000 -0.000000 231 231 231
-1.053661 -1.812518 1.229149 -0.000000 -1.000000 -0.000000 231 231 231
-1.055676 -1.812518 1.225293 -0.000000 -1.000000 -0.000000 231 231 231
-1.055676 -1.812518 1.118600 -0.000000 -1.000000 -0.000000 231 231 231
-1.053661 -1.812518 1.118600 -0.000000 -1.000000 -0.000000 231 231 231
-1.061537 -1.812658 1.221440 0.000000 -0.999850 -0.017306 231 231 231
-1.063438 -1.812658 1.221440 0.000000 -0.999850 -0.017306 231 231 231
-1.062488 -1.812640 1.220400 0.000000 -0.999850 -0.017306 231 231 231
-1.063895 -1.812640 1.223798 -0.004122 -0.999942 0.009950 231 231 231
-1.062927 -1.812658 1.222390 -0.004122 -0.999942 0.009950 231 231 231
-1.062488 -1.812640 1.224381 -0.004122 -0.999942 0.009950 231 231 231
-1.061993 -1.812658 1.222884 0.000000 -1.000000 0.000000 231 231 231
-1.062927 -1.812658 1.222390 0.000000 -1.000000 0.000000 231 231 231
-1.063438 -1.812658 1.221440 0.000000 -1.000000 0.000000 231 231 231
-1.062488 -1.812640 1.224381 -0.005413 -0.999933 0.010234 231 231 231
-1.062927 -1.812658 1.222390 -0.005413 -0.999933 0.010234 231 231 231
-1.061993 -1.812658 1.222884 -0.005413 -0.999933 0.010234 231 231 231
-1.064478 -1.812640 1.222390 -0.011605 -0.999921 0.004806 231 231 231
-1.062927 -1.812658 1.222390 -0.011605 -0.999921 0.004806 231 231 231
-1.063895 -1.812640 1.223798 -0.011605 -0.999921 0.004806 231 231 231
-1.064478 -1.812640 1.111015 -0.013938 -0.999886 0.005776 231 231 231
-1.062982 -1.812658 1.111509 -0.013938 -0.999886 0.005776 231 231 231
-1.063895 -1.812640 1.112422 -0.013938 -0.999886 0.005776 231 231 231
-1.061144 -1.812658 1.111015 -0.110978 -0.992762 0.045915 231 231 231
-1.062488 -1.812528 1.110576 -0.110978 -0.992762 0.045915 231 231 231
-1.061537 -1.812658 1.110065 -0.110978 -0.992762 0.045915 231 231 231
-1.062982 -1.812658 1.111509 0.162349 -0.985400 -0.051279 231 231 231
-1.063438 -1.812658 1.110065 0.162349 -0.985400 -0.051279 231 231 231
-1.062488 -1.812528 1.110576 0.162349 -0.985400 -0.051279 231 231 231
-1.061537 -1.812658 1.111965 -0.084814 -0.995779 -0.035090 231 231 231
-1.062488 -1.812528 1.110576 -0.084814 -0.995779 -0.035090 231 231 231
-1.061144 -1.812658 1.111015 -0.084814 -0.995779 -0.035090 231 231 231
-1.053661 -1.812518 1.180440 1.000000 0.000000 0.000000 231 231 231
-1.053661 -1.809659 1.180440 1.000000 0.000000 0.000000 231 231 231
-1.069603 -1.812518 1.225293 -0.000000 -1.000000 -0.000000 231 231 231
-1.067588 -1.812518 1.214109 -0.000000 -1.000000 -0.000000 231 231 231
-1.069603 -1.812518 1.180440 -0.004791 -0.999989 -0.000156 231 231 231
-1.067588 -1.812518 1.118600 -0.004791 -0.999989 -0.000156 231 231 231
-1.066891 -1.812531 1.180440 -0.004791 -0.999989 -0.000156 231 231 231
-1.069603 -1.809659 1.225293 -1.000000 0.000000 0.000000 231 231 231
-1.069603 -1.812518 1.214109 -1.000000 0.000000 0.000000 231 231 231
-1.069603 -1.812518 1.225293 -1.000000 0.000000 0.000000 231 231 231
-1.067588 -1.809659 1.180440 -0.000000 1.000000 0.000000 231 231 231
-1.069603 -1.809659 1.180440 -0.000000 1.000000 0.000000 231 231 231
-1.055676 -1.809659 1.225293 -0.000000 1.000000 0.000000 231 231 231
-1.067588 -1.809659 1.214109 -0.000000 1.000000 0.000000 231 231 231
-1.067588 -1.809659 1.225293 -0.000000 1.000000 0.000000 231 231 231
-1.055676 -1.809659 1.180440 -0.000000 1.000000 0.000000 231 231 231
-1.053661 -1.812518 1.214109 -0.000000 -1.000000 -0.000000 231 231 231
-1.053661 -1.812518 1.180440 0.000000 -1.000000 0.000000 231 231 231
-1.055676 -1.812518 1.214109 -0.000000 -1.000000 -0.000000 231 231 231
-1.055676 -1.812518 1.118600 -0.000000 0.000000 1.000000 231 231 231
-1.067588 -1.811429 1.118600 -0.000000 0.000000 1.000000 231 231 231
-1.067588 -1.812518 1.118600 -0.000000 0.000000 1.000000 231 231 231
-1.067588 -1.811429 1.180440 -0.000000 -1.000000 -0.000000 231 231 231
-1.055676 -1.811429 1.118600 -0.000000 -1.000000 -0.000000 231 231 231
-1.055676 -1.811429 1.180440 -0.000000 -1.000000 -0.000000 231 231 231
-1.067588 -1.812518 1.214109 -0.000000 0.000000 -1.000000 231 231 231
-1.055676 -1.811429 1.214109 -0.000000 0.000000 -1.000000 231 231 231
-1.055676 -1.812518 1.214109 -0.000000 0.000000 -1.000000 231 231 231
-1.067588 -1.812518 1.118600 0.845093 0.534537 -0.009413 231 231 231
-1.067588 -1.811429 1.180440 0.845093 0.534537 -0.009413 231 231 231
-1.066891 -1.812531 1.180440 0.845093 0.534537 -0.009413 231 231 231
-1.055676 -1.812518 1.214109 -0.840619 0.530980 0.106863 231 231 231
-1.055676 -1.811429 1.208698 -0.840619 0.530980 0.106863 231 231 231
-1.056372 -1.812531 1.208698 -0.840619 0.530980 0.106863 231 231 231
-1.053661 -1.809659 1.214109 -0.000000 1.000000 0.000000 231 231 231
-1.055676 -1.809659 1.208698 -0.000000 1.000000 0.000000 231 231 231
-1.055676 -1.809659 1.214109 -0.000000 1.000000 0.000000 231 231 231
-1.067588 -1.812518 1.214109 -0.004791 -0.999987 0.001784 231 231 231
-1.069603 -1.812518 1.208698 -0.004791 -0.999987 0.001784 231 231 231
-1.066891 -1.812531 1.208698 -0.004791 -0.999987 0.001784 231 231 231
-1.067588 -1.809659 1.208698 -0.000000 1.000000 0.000000 231 231 231
-1.053661 -1.812518 1.208698 -0.000000 -1.000000 -0.000000 231 231 231
-1.067588 -1.811429 1.214109 -0.000000 -1.000000 -0.000000 231 231 231
-1.055676 -1.811429 1.208698 -0.000000 -1.000000 -0.000000 231 231 231
-1.055676 -1.811429 1.214109 -0.000000 -1.000000 -0.000000 231 231 231
-1.067588 -1.812518 1.214109 1.000000 0.000000 0.000000 231 231 231
-1.067588 -1.811429 1.208698 1.000000 0.000000 0.000000 231 231 231
-1.067588 -1.811429 1.214109 1.000000 0.000000 0.000000 231 231 231
-1.053661 -1.812518 1.198566 1.000000 0.000000 0.000000 231 231 231
-1.053661 -1.809659 1.198566 1.000000 0.000000 0.000000 231 231 231
-1.069603 -1.812518 1.198566 -0.004791 -0.999989 -0.000000 231 231 231
-1.066891 -1.812531 1.180440 -0.004791 -0.999989 -0.000000 231 231 231
-1.066891 -1.812531 1.198566 -0.004791 -0.999989 -0.000000 231 231 231
-1.055676 -1.809659 1.198566 -0.000000 1.000000 0.000000 231 231 231
-1.067588 -1.809659 1.198566 -0.000000 1.000000 0.000000 231 231 231
-1.056372 -1.812531 1.198566 0.004793 -0.999989 0.000000 231 231 231
-1.053661 -1.812518 1.180440 0.004793 -0.999989 0.000000 231 231 231
-1.053661 -1.812518 1.198566 0.004793 -0.999989 0.000000 231 231 231
-1.055676 -1.811429 1.180440 0.000000 0.000000 -1.000000 231 231 231
-1.066891 -1.812531 1.180440 0.000000 0.000000 -1.000000 231 231 231
-1.067588 -1.811429 1.180440 0.000000 0.000000 -1.000000 231 231 231
-1.055676 -1.812518 1.118600 -1.000000 -0.000000 0.000000 231 231 231
-1.055676 -1.811429 1.180440 -1.000000 -0.000000 0.000000 231 231 231
-1.055676 -1.811429 1.118600 -1.000000 -0.000000 0.000000 231 231 231
-1.066891 -1.812531 1.198566 -0.000000 -1.000000 -0.000000 231 231 231
-1.056372 -1.812531 1.180440 -0.000000 -1.000000 -0.000000 231 231 231
-1.056372 -1.812531 1.198566 -0.000000 -1.000000 -0.000000 231 231 231
-1.067588 -1.811429 1.180440 -0.845130 -0.534560 0.000000 231 231 231
-1.066891 -1.812531 1.198566 -0.845130 -0.534560 0.000000 231 231 231
-1.067588 -1.811429 1.198566 -0.845130 -0.534560 0.000000 231 231 231
-1.055676 -1.811429 1.208698 0.845461 -0.534038 0.000000 231 231 231
-1.056372 -1.812531 1.203111 0.845461 -0.534038 0.000000 231 231 231
-1.055676 -1.811429 1.203111 0.845461 -0.534038 0.000000 231 231 231
-1.067588 -1.811429 1.208698 0.000000 0.000000 1.000000 231 231 231
-1.056372 -1.812531 1.208698 0.000000 0.000000 1.000000 231 231 231
-1.055676 -1.811429 1.208698 0.000000 0.000000 1.000000 231 231 231
-1.053661 -1.809659 1.208698 -0.000000 1.000000 0.000000 231 231 231
-1.055676 -1.809659 1.203111 -0.000000 1.000000 0.000000 231 231 231
-1.069603 -1.812518 1.208698 -0.004791 -0.999988 -0.000000 231 231 231
-1.066891 -1.812531 1.203111 -0.004791 -0.999988 -0.000000 231 231 231
-1.066891 -1.812531 1.208698 -0.004791 -0.999988 -0.000000 231 231 231
-1.069603 -1.809659 1.203111 -0.000000 1.000000 0.000000 231 231 231
-1.069603 -1.809659 1.208698 -0.000000 1.000000 0.000000 231 231 231
-1.067588 -1.809659 1.203111 -0.000000 1.000000 0.000000 231 231 231
-1.056372 -1.812531 1.208698 0.004793 -0.999989 0.000000 231 231 231
-1.053661 -1.812518 1.203111 0.004793 -0.999989 0.000000 231 231 231
-1.053661 -1.812518 1.208698 0.004793 -0.999989 0.000000 231 231 231
-1.066891 -1.812531 1.208698 -0.000000 -1.000000 -0.000000 231 231 231
-1.056372 -1.812531 1.203111 -0.000000 -1.000000 -0.000000 231 231 231
-1.056372 -1.812531 1.208698 -0.000000 -1.000000 -0.000000 231 231 231
-1.067588 -1.811429 1.203111 -0.845130 -0.534560 0.000000 231 231 231
-1.066891 -1.812531 1.208698 -0.845130 -0.534560 0.000000 231 231 231
-1.067588 -1.811429 1.208698 -0.845130 -0.534560 0.000000 231 231 231
-1.056372 -1.812531 1.198566 0.845461 -0.534038 0.000000 231 231 231
-1.055676 -1.811429 1.198566 0.845461 -0.534038 0.000000 231 231 231
-1.069603 -1.812518 1.203111 -0.004791 -0.999988 -0.000000 231 231 231
-1.066891 -1.812531 1.198566 -0.004791 -0.999988 -0.000000 231 231 231
-1.056372 -1.812531 1.203111 0.004793 -0.999989 0.000000 231 231 231
-1.066891 -1.812531 1.198566 0.000000 -0.642096 -0.766625 231 231 231
-1.058184 -1.813466 1.199349 0.000000 -0.642096 -0.766625 231 231 231
-1.065079 -1.813466 1.199349 0.000000 -0.642096 -0.766625 231 231 231
-1.066891 -1.812531 1.203111 -0.845130 -0.534560 0.000000 231 231 231
-1.056372 -1.812531 1.180440 0.845461 -0.534038 0.000000 231 231 231
-1.055676 -1.811429 1.180440 0.845461 -0.534038 0.000000 231 231 231
-1.065079 -1.813466 1.202328 -0.000000 -1.000000 -0.000000 231 231 231
-1.058184 -1.813466 1.199349 -0.000000 -1.000000 -0.000000 231 231 231
-1.058184 -1.813466 1.202328 -0.000000 -1.000000 -0.000000 231 231 231
-1.066891 -1.812531 1.198566 -0.458543 -0.888672 0.000000 231 231 231
-1.065079 -1.813466 1.202328 -0.458543 -0.888672 0.000000 231 231 231
-1.066891 -1.812531 1.203111 -0.458543 -0.888672 0.000000 231 231 231
-1.056372 -1.812531 1.203111 0.458543 -0.888672 0.000000 231 231 231
-1.058184 -1.813466 1.199349 0.458543 -0.888672 0.000000 231 231 231
-1.056372 -1.812531 1.198566 0.458543 -0.888672 0.000000 231 231 231
-1.056372 -1.812531 1.203111 0.000000 -0.642096 0.766625 231 231 231
-1.065079 -1.813466 1.202328 0.000000 -0.642096 0.766625 231 231 231
-1.058184 -1.813466 1.202328 0.000000 -0.642096 0.766625 231 231 231
-1.053661 -1.809659 1.107416 -0.000000 1.000000 0.000000 231 231 231
-1.055676 -1.809659 1.103560 -0.000000 1.000000 0.000000 231 231 231
-1.055676 -1.809659 1.107416 -0.000000 1.000000 0.000000 231 231 231
-1.053661 -1.812518 1.107416 1.000000 0.000000 0.000000 231 231 231
-1.053661 -1.809659 1.103560 1.000000 0.000000 0.000000 231 231 231
-1.053661 -1.809659 1.229149 -0.000000 1.000000 0.000000 231 231 231
-1.055676 -1.809659 1.229149 -0.000000 1.000000 0.000000 231 231 231
-1.053661 -1.809659 1.118600 -0.000000 1.000000 0.000000 231 231 231
-1.053661 -1.812518 1.229149 1.000000 0.000000 0.000000 231 231 231
-1.053661 -1.809659 1.225293 1.000000 0.000000 0.000000 231 231 231
-1.053661 -1.809659 1.229149 1.000000 0.000000 0.000000 231 231 231
-1.069603 -1.809659 1.107416 -1.000000 0.000000 0.000000 231 231 231
-1.069603 -1.812518 1.103560 -1.000000 0.000000 0.000000 231 231 231
-1.069603 -1.812518 1.107416 -1.000000 0.000000 0.000000 231 231 231
-1.055676 -1.809659 1.103560 0.000000 0.000000 -1.000000 231 231 231
-1.053661 -1.812518 1.103560 0.000000 0.000000 -1.000000 231 231 231
-1.055676 -1.812518 1.103560 0.000000 0.000000 -1.000000 231 231 231
-1.067588 -1.809659 1.229149 0.000000 -0.000000 1.000000 231 231 231
-1.069603 -1.812518 1.229149 0.000000 -0.000000 1.000000 231 231 231
-1.067588 -1.812518 1.229149 0.000000 -0.000000 1.000000 231 231 231
-1.069603 -1.809659 1.229149 -1.000000 0.000000 0.000000 231 231 231
-1.069603 -1.812518 1.229149 -1.000000 0.000000 0.000000 231 231 231
-1.069603 -1.809659 1.118600 -1.000000 0.000000 0.000000 231 231 231
-1.069603 -1.812518 1.118600 -1.000000 0.000000 0.000000 231 231 231
-1.067588 -1.809659 1.103560 -0.000000 1.000000 0.000000 231 231 231
-1.067588 -1.809659 1.229149 -0.000000 1.000000 0.000000 231 231 231
-1.069603 -1.809659 1.225293 -0.000000 1.000000 0.000000 231 231 231
-1.069603 -1.809659 1.229149 -0.000000 1.000000 0.000000 231 231 231
-1.069603 -1.809659 1.103560 0.000000 0.000000 -1.000000 231 231 231
-1.067588 -1.812518 1.103560 0.000000 0.000000 -1.000000 231 231 231
-1.069603 -1.812518 1.103560 0.000000 0.000000 -1.000000 231 231 231
-1.067588 -1.809659 1.103560 0.000000 0.000000 -1.000000 231 231 231
-1.053661 -1.809659 1.229149 0.000000 -0.000000 1.000000 231 231 231
-1.055676 -1.812518 1.229149 0.000000 -0.000000 1.000000 231 231 231
-1.053661 -1.812518 1.229149 0.000000 -0.000000 1.000000 231 231 231
-1.055676 -1.809659 1.229149 0.000000 -0.000000 1.000000 231 231 231
-1.062488 -1.812640 1.224381 0.005768 -0.999886 0.013931 231 231 231
-1.061993 -1.812658 1.222884 0.005768 -0.999886 0.013931 231 231 231
-1.061080 -1.812640 1.223798 0.005768 -0.999886 0.013931 231 231 231
-1.061080 -1.812640 1.223798 0.013937 -0.999886 0.005770 231 231 231
-1.061993 -1.812658 1.222884 0.013937 -0.999886 0.005770 231 231 231
-1.060497 -1.812640 1.222390 0.013937 -0.999886 0.005770 231 231 231
-1.060497 -1.812640 1.222390 0.013432 -0.999901 0.004241 231 231 231
-1.061993 -1.812658 1.222884 0.013432 -0.999901 0.004241 231 231 231
-1.061537 -1.812658 1.221440 0.013432 -0.999901 0.004241 231 231 231
-1.063895 -1.812640 1.112422 -0.005776 -0.999886 0.013938 231 231 231
-1.062982 -1.812658 1.111509 -0.005776 -0.999886 0.013938 231 231 231
-1.062488 -1.812640 1.113005 -0.005776 -0.999886 0.013938 231 231 231
-1.062488 -1.812640 1.109024 0.097250 -0.992681 0.071597 231 231 231
-1.062488 -1.812528 1.110576 0.097250 -0.992681 0.071597 231 231 231
-1.063438 -1.812658 1.110065 0.097250 -0.992681 0.071597 231 231 231
-1.061537 -1.812658 1.110065 -0.097166 -0.992690 0.071598 231 231 231
-1.062488 -1.812528 1.110576 -0.097166 -0.992690 0.071598 231 231 231
-1.062488 -1.812640 1.109024 -0.097166 -0.992690 0.071598 231 231 231
-1.062488 -1.812640 1.113005 -0.004238 -0.999901 0.013430 231 231 231
-1.062982 -1.812658 1.111509 -0.004238 -0.999901 0.013430 231 231 231
-1.061537 -1.812658 1.111965 -0.004238 -0.999901 0.013430 231 231 231
-1.053661 -1.809659 1.225293 -0.000000 1.000000 0.000000 231 231 231
-1.053661 -1.809659 1.180440 -0.000000 1.000000 0.000000 231 231 231
-1.053661 -1.812518 1.225293 1.000000 0.000000 0.000000 231 231 231
-1.053661 -1.809659 1.214109 1.000000 0.000000 0.000000 231 231 231
-1.069603 -1.809659 1.180440 -1.000000 0.000000 0.000000 231 231 231
-1.069603 -1.812518 1.180440 -1.000000 0.000000 0.000000 231 231 231
-1.069603 -1.809659 1.214109 -0.000000 1.000000 0.000000 231 231 231
-1.053661 -1.812518 1.214109 1.000000 0.000000 0.000000 231 231 231
-1.053661 -1.809659 1.208698 1.000000 0.000000 0.000000 231 231 231
-1.069603 -1.809659 1.214109 -1.000000 0.000000 0.000000 231 231 231
-1.069603 -1.812518 1.208698 -1.000000 0.000000 0.000000 231 231 231
-1.053661 -1.809659 1.198566 -0.000000 1.000000 0.000000 231 231 231
-1.069603 -1.809659 1.198566 -1.000000 0.000000 0.000000 231 231 231
-1.069603 -1.812518 1.198566 -1.000000 0.000000 0.000000 231 231 231
-1.069603 -1.809659 1.198566 -0.000000 1.000000 0.000000 231 231 231
-1.053661 -1.812518 1.208698 1.000000 0.000000 0.000000 231 231 231
-1.053661 -1.809659 1.203111 1.000000 0.000000 0.000000 231 231 231
-1.069603 -1.809659 1.208698 -1.000000 0.000000 0.000000 231 231 231
-1.069603 -1.812518 1.203111 -1.000000 0.000000 0.000000 231 231 231
-1.053661 -1.809659 1.203111 -0.000000 1.000000 0.000000 231 231 231
-1.053661 -1.812518 1.203111 1.000000 0.000000 0.000000 231 231 231
-1.069603 -1.809659 1.203111 -1.000000 0.000000 0.000000 231 231 231
-1.069603 -1.812518 1.103560 0.000000 -1.000000 0.000000 231 231 231
-1.061537 -1.812658 1.221440 0.000000 -1.000000 0.000000 231 231 231
-1.064478 -1.812640 1.222390 -0.011605 -0.999913 0.006242 231 231 231
-1.063438 -1.812658 1.221440 -0.011605 -0.999913 0.006242 231 231 231
-1.062927 -1.812658 1.222390 -0.011605 -0.999913 0.006242 231 231 231
-1.064478 -1.812640 1.111015 -0.013432 -0.999901 0.004242 231 231 231
-1.063438 -1.812658 1.110065 -0.013432 -0.999901 0.004242 231 231 231
-1.062982 -1.812658 1.111509 -0.013432 -0.999901 0.004242 231 231 231
-1.061537 -1.812658 1.111965 0.037368 -0.992261 -0.118415 231 231 231
-1.062982 -1.812658 1.111509 0.037368 -0.992261 -0.118415 231 231 231
-1.062488 -1.812528 1.110576 0.037368 -0.992261 -0.118415 231 231 231
-1.069603 -1.812518 1.214109 0.000000 -1.000000 0.000000 231 231 231
-1.069603 -1.812518 1.180440 0.000000 -1.000000 0.000000 231 231 231
-1.053661 -1.812518 1.180440 0.004793 -0.999989 -0.000156 231 231 231
-1.056372 -1.812531 1.180440 0.004793 -0.999989 -0.000156 231 231 231
-1.055676 -1.812518 1.118600 0.004793 -0.999989 -0.000156 231 231 231
-1.055676 -1.811429 1.118600 -0.000000 0.000000 1.000000 231 231 231
-1.067588 -1.811429 1.118600 0.000000 -1.000000 0.000000 231 231 231
-1.067588 -1.811429 1.214109 -0.000000 -0.000000 -1.000000 231 231 231
-1.067588 -1.812518 1.118600 1.000000 0.000000 0.000000 231 231 231
-1.067588 -1.811429 1.118600 1.000000 0.000000 0.000000 231 231 231
-1.067588 -1.811429 1.180440 1.000000 0.000000 0.000000 231 231 231
-1.055676 -1.812518 1.214109 -1.000000 0.000000 0.000000 231 231 231
-1.055676 -1.811429 1.214109 -1.000000 0.000000 0.000000 231 231 231
-1.055676 -1.811429 1.208698 -1.000000 0.000000 0.000000 231 231 231
-1.069603 -1.812518 1.208698 0.000000 -1.000000 0.000000 231 231 231
-1.055676 -1.812518 1.214109 0.004793 -0.999987 0.001785 231 231 231
-1.056372 -1.812531 1.208698 0.004793 -0.999987 0.001785 231 231 231
-1.053661 -1.812518 1.208698 0.004793 -0.999987 0.001785 231 231 231
-1.067588 -1.811429 1.208698 0.000000 -1.000000 0.000000 231 231 231
-1.067588 -1.812518 1.214109 0.840281 0.531493 0.106966 231 231 231
-1.066891 -1.812531 1.208698 0.840281 0.531493 0.106966 231 231 231
-1.067588 -1.811429 1.208698 0.840281 0.531493 0.106966 231 231 231
-1.069603 -1.812518 1.180440 -0.004791 -0.999989 0.000000 231 231 231
-1.056372 -1.812531 1.180440 0.004793 -0.999989 0.000000 231 231 231
-1.056372 -1.812531 1.180440 0.000000 0.000000 -1.000000 231 231 231
-1.055676 -1.812518 1.118600 -0.845423 0.534014 -0.009404 231 231 231
-1.056372 -1.812531 1.180440 -0.845423 0.534014 -0.009404 231 231 231
-1.055676 -1.811429 1.180440 -0.845423 0.534014 -0.009404 231 231 231
-1.066891 -1.812531 1.180440 0.000000 -1.000000 0.000000 231 231 231
-1.066891 -1.812531 1.180440 -0.845130 -0.534560 -0.000000 231 231 231
-1.056372 -1.812531 1.208698 0.845461 -0.534038 0.000000 231 231 231
-1.066891 -1.812531 1.208698 0.000000 0.000000 1.000000 231 231 231
-1.066891 -1.812531 1.203111 0.000000 -1.000000 0.000000 231 231 231
-1.069603 -1.812518 1.198566 -0.004791 -0.999988 0.000000 231 231 231
-1.056372 -1.812531 1.198566 -0.000000 -0.642096 -0.766625 231 231 231
-1.065079 -1.813466 1.199349 0.000000 -1.000000 0.000000 231 231 231
-1.065079 -1.813466 1.199349 -0.458543 -0.888672 -0.000000 231 231 231
-1.058184 -1.813466 1.202328 0.458543 -0.888672 0.000000 231 231 231
-1.066891 -1.812531 1.203111 0.000000 -0.642096 0.766625 231 231 231
-1.053661 -1.809659 1.103560 0.000000 1.000000 0.000000 231 231 231
-1.053661 -1.812518 1.103560 1.000000 0.000000 -0.000000 231 231 231
-1.069603 -1.809659 1.103560 -1.000000 0.000000 0.000000 231 231 231
-1.053661 -1.809659 1.103560 0.000000 0.000000 -1.000000 231 231 231
-1.069603 -1.809659 1.229149 0.000000 0.000000 1.000000 231 231 231
3 0 1 2
3 3 4 5
3 6 7 8
3 9 2 10
3 11 12 13
3 14 15 16
3 2 17 14
3 18 13 19
3 20 11 18
3 21 22 23
3 8 24 21
3 25 16 26
3 10 14 25
3 27 28 29
3 30 31 32
3 33 34 35
3 36 37 38
3 39 40 41
3 42 43 44
3 45 46 47
3 48 49 50
3 51 52 53
3 54 5 55
3 56 57 7
3 58 59 60
3 61 62 63
3 64 19 65
3 66 67 68
3 69 18 64
3 24 70 22
3 71 25 26
3 7 72 24
3 73 74 75
3 76 77 78
3 79 80 81
3 82 83 84
3 85 86 87
3 88 89 90
3 91 92 93
3 90 94 67
3 72 95 70
3 96 97 98
3 99 100 101
3 102 55 103
3 104 105 106
3 107 64 108
3 109 110 111
3 112 113 114
3 115 116 117
3 118 119 120
3 121 122 123
3 124 125 126
3 127 128 129
3 130 131 89
3 132 133 134
3 94 135 136
3 89 137 94
3 138 139 140
3 141 142 143
3 144 145 146
3 126 147 148
3 149 150 133
3 131 108 137
3 151 111 139
3 152 153 154
3 123 155 144
3 148 156 157
3 158 159 160
3 161 162 163
3 164 165 166
3 167 168 169
3 170 171 172
3 173 174 4
3 175 66 176
3 177 172 20
3 178 179 180
3 181 182 183
3 184 185 186
3 187 188 189
3 190 63 191
3 192 183 193
3 172 194 11
3 195 196 197
3 176 68 195
3 198 199 200
3 201 186 199
3 202 203 204
3 205 189 203
3 206 207 208
3 209 210 211
3 212 213 214
3 215 216 217
3 218 219 220
3 221 222 223
3 224 225 226
3 227 90 66
3 228 20 69
3 229 230 179
3 231 193 232
3 68 233 196
3 234 235 230
3 236 237 62
3 67 136 233
3 238 69 107
3 239 232 240
3 108 65 241
3 242 243 235
3 244 245 237
3 246 107 131
3 247 103 243
3 248 240 245
3 137 241 135
3 0 249 1
3 3 173 4
3 6 56 7
3 9 0 2
3 11 194 12
3 14 17 15
3 2 1 17
3 18 11 13
3 20 172 11
3 21 24 22
3 8 7 24
3 25 14 16
3 10 2 14
3 250 33 35
3 251 252 253
3 254 255 256
3 257 258 259
3 54 3 5
3 56 260 57
3 261 9 10
3 61 236 62
3 64 18 19
3 66 90 67
3 69 20 18
3 24 72 70
3 262 263 264
3 7 57 72
3 73 265 74
3 76 266 77
3 79 267 80
3 268 269 270
3 271 272 273
3 88 130 89
3 57 260 274
3 90 89 94
3 275 276 277
3 96 278 97
3 279 280 281
3 102 54 55
3 104 282 105
3 107 69 64
3 109 283 110
3 112 284 113
3 285 286 287
3 118 288 119
3 121 289 122
3 124 290 125
3 127 291 128
3 130 246 131
3 132 149 133
3 94 137 135
3 89 131 137
3 138 151 139
3 141 292 142
3 144 155 145
3 126 125 147
3 149 293 150
3 131 107 108
3 151 109 111
3 152 294 153
3 123 122 155
3 148 147 156
3 158 295 159
3 161 296 162
3 164 297 165
3 167 298 168
3 170 299 171
3 173 300 174
3 175 227 66
3 177 170 172
3 178 229 179
3 181 301 182
3 184 302 185
3 187 303 188
3 190 61 63
3 192 181 183
3 172 171 194
3 195 68 196
3 176 66 68
3 198 201 199
3 201 184 186
3 202 205 203
3 205 187 189
3 227 88 90
3 228 177 20
3 229 234 230
3 231 192 193
3 68 67 233
3 234 242 235
3 236 244 237
3 67 94 136
3 238 228 69
3 239 231 232
3 108 64 65
3 242 247 243
3 244 248 245
3 246 238 107
3 247 102 103
3 248 239 240
3 137 108 241
