ply
format ascii 1.0
comment Created by Blender 2.79 (sub 0) - www.blender.org, source file: 'marbled_bathroom_refined_0.001_d_m.blend'
element vertex 514
property float x
property float y
property float z
property float nx
property float ny
property float nz
property uchar red
property uchar green
property uchar blue
element face 512
property list uchar uint vertex_indices
end_header
-0.919688 -1.828125 -0.000000 -0.000000 -0.000000 1.000000 231 231 231
-0.953750 -1.812500 -0.000000 -0.000000 -0.000000 1.000000 231 231 231
-0.953750 -1.862500 -0.000000 -0.000000 -0.000000 1.000000 231 231 231
-0.136250 -1.837500 -0.000000 -0.000000 -0.000000 1.000000 231 231 231
-0.068125 -1.831250 -0.000000 -0.000000 -0.000000 1.000000 231 231 231
-0.136250 -1.812500 -0.000000 -0.000000 -0.000000 1.000000 231 231 231
-0.204375 -1.943750 -0.000000 0.000000 -0.000000 1.000000 231 231 231
-0.136250 -1.937500 -0.000000 0.000000 -0.000000 1.000000 231 231 231
-0.272500 -1.925000 -0.000000 0.000000 -0.000000 1.000000 231 231 231
0.408750 -1.887500 -0.000000 -0.000000 -0.000000 1.000000 231 231 231
0.476875 -1.881250 -0.000000 -0.000000 -0.000000 1.000000 231 231 231
0.408750 -1.862500 -0.000000 -0.000000 -0.000000 1.000000 231 231 231
0.068125 -1.931250 -0.000000 0.000000 -0.000000 1.000000 231 231 231
0.102188 -1.896875 -0.000000 0.000000 -0.000000 1.000000 231 231 231
0.068125 -1.881250 -0.000000 0.000000 -0.000000 1.000000 231 231 231
0.749375 -1.856250 -0.000000 -0.000000 -0.000000 1.000000 231 231 231
0.817500 -1.875000 -0.000000 -0.000000 -0.000000 1.000000 231 231 231
0.783438 -1.840625 -0.000000 -0.000000 -0.000000 1.000000 231 231 231
0.408750 -1.950000 -0.000000 0.000000 -0.000000 1.000000 231 231 231
0.545000 -1.950000 -0.000000 0.000000 -0.000000 1.000000 231 231 231
0.408750 -1.937500 -0.000000 0.000000 -0.000000 1.000000 231 231 231
0.885625 -1.893750 -0.000000 -0.000000 -0.000000 1.000000 231 231 231
0.953750 -1.912500 -0.000000 -0.000000 -0.000000 1.000000 231 231 231
0.919688 -1.878125 -0.000000 -0.000000 -0.000000 1.000000 231 231 231
0.613125 -1.931250 -0.000000 0.000000 -0.000000 1.000000 231 231 231
0.579063 -1.915625 -0.000000 0.000000 -0.000000 1.000000 231 231 231
0.987813 -1.796875 -0.000000 -0.000000 -0.000000 1.000000 231 231 231
0.953750 -1.812500 -0.000000 -0.000000 -0.000000 1.000000 231 231 231
1.021875 -1.831250 -0.000000 -0.000000 -0.000000 1.000000 231 231 231
0.681250 -1.937500 -0.000000 0.000000 -0.000000 1.000000 231 231 231
0.681250 -1.950000 -0.000000 0.000000 -0.000000 1.000000 231 231 231
0.817500 -1.950000 -0.000000 0.000000 -0.000000 1.000000 231 231 231
1.021875 -1.831250 -0.000000 -0.000000 -0.000000 1.000000 231 231 231
0.987813 -1.846875 -0.000000 -0.000000 -0.000000 1.000000 231 231 231
1.021875 -1.881250 -0.000000 -0.000000 -0.000000 1.000000 231 231 231
0.885625 -1.931250 -0.000000 0.000000 -0.000000 1.000000 231 231 231
0.817500 -1.925000 -0.000000 0.000000 -0.000000 1.000000 231 231 231
1.090000 -1.900000 -0.000000 -0.000000 -0.000000 1.000000 231 231 231
1.055938 -1.865625 -0.000000 -0.000000 -0.000000 1.000000 231 231 231
0.953750 -1.937500 -0.000000 0.000000 -0.000000 1.000000 231 231 231
0.953750 -1.950000 -0.000000 0.000000 -0.000000 1.000000 231 231 231
1.055938 -1.915625 -0.000000 0.000000 -0.000000 1.000000 231 231 231
1.090000 -1.950000 -0.000000 0.000000 -0.000000 1.000000 231 231 231
-0.613125 -1.906250 -0.000000 0.000000 -0.000000 1.000000 231 231 231
-0.545000 -1.900000 -0.000000 0.000000 -0.000000 1.000000 231 231 231
-0.681250 -1.887500 -0.000000 0.000000 -0.000000 1.000000 231 231 231
0.408750 -1.787500 -0.000000 -0.000000 -0.000000 1.000000 231 231 231
0.272500 -1.775000 -0.000000 -0.000000 -0.000000 1.000000 231 231 231
0.340625 -1.793750 -0.000000 -0.000000 -0.000000 1.000000 231 231 231
-0.136250 -1.937500 -0.000000 -0.000000 -0.000000 1.000000 231 231 231
-0.068125 -1.931250 -0.000000 -0.000000 -0.000000 1.000000 231 231 231
-0.136250 -1.912500 -0.000000 -0.000000 -0.000000 1.000000 231 231 231
0.545000 -1.850000 -0.000000 -0.000000 -0.000000 1.000000 231 231 231
0.579063 -1.884375 -0.000000 -0.000000 -0.000000 1.000000 231 231 231
0.613125 -1.868750 -0.000000 -0.000000 -0.000000 1.000000 231 231 231
0.136250 -1.912500 -0.000000 -0.000000 -0.000000 1.000000 231 231 231
0.204375 -1.931250 -0.000000 -0.000000 -0.000000 1.000000 231 231 231
0.272500 -1.925000 -0.000000 -0.000000 -0.000000 1.000000 231 231 231
0.919688 -1.828125 -0.000000 0.000000 -0.000000 1.000000 231 231 231
0.953750 -1.812500 -0.000000 0.000000 -0.000000 1.000000 231 231 231
0.885625 -1.793750 -0.000000 0.000000 -0.000000 1.000000 231 231 231
0.408750 -1.937500 -0.000000 -0.000000 -0.000000 1.000000 231 231 231
0.476875 -1.931250 -0.000000 -0.000000 -0.000000 1.000000 231 231 231
0.953750 -1.862500 -0.000000 0.000000 -0.000000 1.000000 231 231 231
0.987813 -1.896875 -0.000000 0.000000 -0.000000 1.000000 231 231 231
0.613125 -1.931250 -0.000000 0.000000 -0.000000 1.000000 231 231 231
0.681250 -1.937500 -0.000000 0.000000 -0.000000 1.000000 231 231 231
1.090000 -1.800000 -0.000000 -0.000000 -0.000000 1.000000 231 231 231
1.055938 -1.765625 -0.000000 -0.000000 -0.000000 1.000000 231 231 231
1.021875 -1.781250 -0.000000 -0.000000 -0.000000 1.000000 231 231 231
0.749375 -1.931250 -0.000000 -0.000000 -0.000000 1.000000 231 231 231
1.055938 -1.865625 -0.000000 -0.000000 -0.000000 1.000000 231 231 231
1.090000 -1.850000 -0.000000 0.000000 -0.000000 1.000000 231 231 231
-0.476875 -1.881250 -0.000000 0.000000 -0.000000 1.000000 231 231 231
-0.442813 -1.846875 -0.000000 0.000000 -0.000000 1.000000 231 231 231
-0.476875 -1.831250 -0.000000 0.000000 -0.000000 1.000000 231 231 231
0.408750 -1.787500 -0.000000 0.000000 -0.000000 1.000000 231 231 231
0.545000 -1.800000 -0.000000 0.000000 -0.000000 1.000000 231 231 231
0.476875 -1.781250 -0.000000 0.000000 -0.000000 1.000000 231 231 231
-0.068125 -1.931250 -0.000000 -0.000000 -0.000000 1.000000 231 231 231
0.000000 -1.950000 -0.000000 -0.000000 -0.000000 1.000000 231 231 231
-0.034063 -1.915625 -0.000000 -0.000000 -0.000000 1.000000 231 231 231
0.681250 -1.912500 -0.000000 -0.000000 -0.000000 1.000000 231 231 231
0.817500 -1.925000 -0.000000 -0.000000 -0.000000 1.000000 231 231 231
0.749375 -1.906250 -0.000000 -0.000000 -0.000000 1.000000 231 231 231
0.340625 -1.906250 -0.000000 -0.000000 -0.000000 1.000000 231 231 231
0.306563 -1.890625 -0.000000 -0.000000 -0.000000 1.000000 231 231 231
0.919688 -1.778125 -0.000000 0.000000 -0.000000 1.000000 231 231 231
0.885625 -1.793750 -0.000000 0.000000 -0.000000 1.000000 231 231 231
0.510938 -1.915625 -0.000000 -0.000000 -0.000000 1.000000 231 231 231
0.476875 -1.931250 -0.000000 -0.000000 -0.000000 1.000000 231 231 231
0.987813 -1.896875 -0.000000 0.000000 -0.000000 1.000000 231 231 231
1.021875 -1.931250 -0.000000 0.000000 -0.000000 1.000000 231 231 231
0.749375 -1.918750 -0.000000 0.000000 -0.000000 1.000000 231 231 231
0.681250 -1.912500 -0.000000 0.000000 -0.000000 1.000000 231 231 231
1.055938 -1.815625 -0.000000 -0.000000 -0.000000 1.000000 231 231 231
-0.408750 -1.862500 -0.000000 -0.000000 -0.000000 1.000000 231 231 231
-0.340625 -1.881250 -0.000000 -0.000000 -0.000000 1.000000 231 231 231
-0.272500 -1.875000 -0.000000 -0.000000 -0.000000 1.000000 231 231 231
0.749375 -1.781250 -0.000000 -0.000000 -0.000000 1.000000 231 231 231
0.817500 -1.775000 -0.000000 -0.000000 -0.000000 1.000000 231 231 231
0.681250 -1.762500 -0.000000 -0.000000 -0.000000 1.000000 231 231 231
-0.170313 -1.878125 -0.000000 -0.000000 -0.000000 1.000000 231 231 231
-0.204375 -1.893750 -0.000000 -0.000000 -0.000000 1.000000 231 231 231
-0.136250 -1.912500 -0.000000 -0.000000 -0.000000 1.000000 231 231 231
0.817500 -1.875000 -0.000000 -0.000000 -0.000000 1.000000 231 231 231
0.851563 -1.909375 -0.000000 -0.000000 -0.000000 1.000000 231 231 231
0.340625 -1.906250 -0.000000 0.000000 -0.000000 1.000000 231 231 231
0.408750 -1.912500 -0.000000 0.000000 -0.000000 1.000000 231 231 231
0.953750 -1.762500 -0.000000 0.000000 -0.000000 1.000000 231 231 231
0.987813 -1.796875 -0.000000 0.000000 -0.000000 1.000000 231 231 231
1.021875 -1.781250 -0.000000 0.000000 -0.000000 1.000000 231 231 231
0.476875 -1.906250 -0.000000 -0.000000 -0.000000 1.000000 231 231 231
0.408750 -1.912500 -0.000000 -0.000000 -0.000000 1.000000 231 231 231
1.055938 -1.915625 -0.000000 -0.000000 -0.000000 1.000000 231 231 231
1.021875 -1.881250 -0.000000 -0.000000 -0.000000 1.000000 231 231 231
-0.204375 -1.856250 -0.000000 0.000000 -0.000000 1.000000 231 231 231
-0.238438 -1.840625 -0.000000 0.000000 -0.000000 1.000000 231 231 231
0.749375 -1.756250 -0.000000 -0.000000 -0.000000 1.000000 231 231 231
0.681250 -1.762500 -0.000000 -0.000000 -0.000000 1.000000 231 231 231
-0.136250 -1.862500 -0.000000 -0.000000 -0.000000 1.000000 231 231 231
-0.102188 -1.896875 -0.000000 -0.000000 -0.000000 1.000000 231 231 231
-0.068125 -1.881250 -0.000000 -0.000000 -0.000000 1.000000 231 231 231
0.953750 -1.912500 -0.000000 0.000000 -0.000000 1.000000 231 231 231
0.885625 -1.931250 -0.000000 0.000000 -0.000000 1.000000 231 231 231
0.953750 -1.937500 -0.000000 0.000000 -0.000000 1.000000 231 231 231
0.476875 -1.893750 -0.000000 0.000000 -0.000000 1.000000 231 231 231
0.408750 -1.887500 -0.000000 0.000000 -0.000000 1.000000 231 231 231
1.021875 -1.756250 -0.000000 -0.000000 -0.000000 1.000000 231 231 231
0.545000 -1.900000 -0.000000 0.000000 -0.000000 1.000000 231 231 231
-0.204375 -1.856250 -0.000000 0.000000 -0.000000 1.000000 231 231 231
-0.136250 -1.862500 -0.000000 0.000000 -0.000000 1.000000 231 231 231
0.817500 -1.750000 -0.000000 0.000000 -0.000000 1.000000 231 231 231
0.885625 -1.768750 -0.000000 0.000000 -0.000000 1.000000 231 231 231
0.953750 -1.762500 -0.000000 0.000000 -0.000000 1.000000 231 231 231
-0.068125 -1.856250 -0.000000 -0.000000 -0.000000 1.000000 231 231 231
1.021875 -1.931250 -0.000000 -0.000000 -0.000000 1.000000 231 231 231
1.090000 -1.750000 -0.000000 -0.000000 -0.000000 1.000000 231 231 231
-0.068125 -1.843750 -0.000000 0.000000 -0.000000 1.000000 231 231 231
-0.136250 -1.837500 -0.000000 0.000000 -0.000000 1.000000 231 231 231
0.953750 -1.750000 -0.000000 0.000000 -0.000000 1.000000 231 231 231
0.000000 -1.850000 -0.000000 -0.000000 -0.000000 1.000000 231 231 231
-0.851563 -1.859375 -0.000000 -0.000000 -0.000000 1.000000 231 231 231
-0.817500 -1.875000 -0.000000 -0.000000 -0.000000 1.000000 231 231 231
-0.817500 -1.825000 -0.000000 -0.000000 -0.000000 1.000000 231 231 231
-0.681250 -1.787500 -0.000000 0.000000 -0.000000 1.000000 231 231 231
-0.545000 -1.800000 -0.000000 0.000000 -0.000000 1.000000 231 231 231
-0.613125 -1.781250 -0.000000 0.000000 -0.000000 1.000000 231 231 231
-0.681250 -1.950000 -0.000000 0.000000 -0.000000 1.000000 231 231 231
-0.545000 -1.950000 -0.000000 0.000000 -0.000000 1.000000 231 231 231
-0.681250 -1.937500 -0.000000 0.000000 -0.000000 1.000000 231 231 231
0.476875 -1.881250 -0.000000 -0.000000 -0.000000 1.000000 231 231 231
0.545000 -1.900000 -0.000000 -0.000000 -0.000000 1.000000 231 231 231
0.510938 -1.865625 -0.000000 -0.000000 -0.000000 1.000000 231 231 231
0.136250 -1.862500 -0.000000 -0.000000 -0.000000 1.000000 231 231 231
0.102188 -1.896875 -0.000000 -0.000000 -0.000000 1.000000 231 231 231
0.136250 -1.912500 -0.000000 -0.000000 -0.000000 1.000000 231 231 231
0.647188 -1.803125 -0.000000 -0.000000 -0.000000 1.000000 231 231 231
0.613125 -1.818750 -0.000000 -0.000000 -0.000000 1.000000 231 231 231
0.681250 -1.837500 -0.000000 -0.000000 -0.000000 1.000000 231 231 231
0.136250 -1.937500 -0.000000 0.000000 -0.000000 1.000000 231 231 231
0.136250 -1.950000 -0.000000 0.000000 -0.000000 1.000000 231 231 231
0.272500 -1.950000 -0.000000 0.000000 -0.000000 1.000000 231 231 231
0.919688 -1.878125 -0.000000 0.000000 -0.000000 1.000000 231 231 231
0.953750 -1.862500 -0.000000 0.000000 -0.000000 1.000000 231 231 231
0.613125 -1.906250 -0.000000 -0.000000 -0.000000 1.000000 231 231 231
1.055938 -1.815625 -0.000000 0.000000 -0.000000 1.000000 231 231 231
-0.613125 -1.893750 -0.000000 0.000000 -0.000000 1.000000 231 231 231
-0.613125 -1.868750 -0.000000 0.000000 -0.000000 1.000000 231 231 231
0.170313 -1.821875 -0.000000 -0.000000 -0.000000 1.000000 231 231 231
0.204375 -1.806250 -0.000000 -0.000000 -0.000000 1.000000 231 231 231
0.136250 -1.787500 -0.000000 -0.000000 -0.000000 1.000000 231 231 231
-0.408750 -1.912500 -0.000000 -0.000000 -0.000000 1.000000 231 231 231
-0.272500 -1.925000 -0.000000 -0.000000 -0.000000 1.000000 231 231 231
-0.340625 -1.906250 -0.000000 -0.000000 -0.000000 1.000000 231 231 231
0.613125 -1.868750 -0.000000 0.000000 -0.000000 1.000000 231 231 231
0.613125 -1.893750 -0.000000 0.000000 -0.000000 1.000000 231 231 231
0.681250 -1.887500 -0.000000 0.000000 -0.000000 1.000000 231 231 231
0.204375 -1.893750 -0.000000 -0.000000 -0.000000 1.000000 231 231 231
0.204375 -1.918750 -0.000000 -0.000000 -0.000000 1.000000 231 231 231
0.817500 -1.825000 -0.000000 -0.000000 -0.000000 1.000000 231 231 231
0.851563 -1.859375 -0.000000 -0.000000 -0.000000 1.000000 231 231 231
0.885625 -1.843750 -0.000000 -0.000000 -0.000000 1.000000 231 231 231
0.340625 -1.918750 -0.000000 0.000000 -0.000000 1.000000 231 231 231
0.272500 -1.925000 -0.000000 0.000000 -0.000000 1.000000 231 231 231
0.987813 -1.846875 -0.000000 -0.000000 -0.000000 1.000000 231 231 231
-0.408750 -1.812500 -0.000000 0.000000 -0.000000 1.000000 231 231 231
-0.442813 -1.846875 -0.000000 0.000000 -0.000000 1.000000 231 231 231
-0.408750 -1.862500 -0.000000 0.000000 -0.000000 1.000000 231 231 231
0.204375 -1.756250 -0.000000 -0.000000 -0.000000 1.000000 231 231 231
0.136250 -1.762500 -0.000000 -0.000000 -0.000000 1.000000 231 231 231
0.272500 -1.775000 -0.000000 -0.000000 -0.000000 1.000000 231 231 231
-0.034063 -1.915625 -0.000000 0.000000 -0.000000 1.000000 231 231 231
0.000000 -1.900000 -0.000000 0.000000 -0.000000 1.000000 231 231 231
0.783438 -1.890625 -0.000000 0.000000 -0.000000 1.000000 231 231 231
0.749375 -1.906250 -0.000000 0.000000 -0.000000 1.000000 231 231 231
0.340625 -1.881250 -0.000000 0.000000 -0.000000 1.000000 231 231 231
0.272500 -1.875000 -0.000000 0.000000 -0.000000 1.000000 231 231 231
0.885625 -1.768750 -0.000000 -0.000000 -0.000000 1.000000 231 231 231
0.817500 -1.775000 -0.000000 -0.000000 -0.000000 1.000000 231 231 231
-0.340625 -1.843750 -0.000000 0.000000 -0.000000 1.000000 231 231 231
-0.340625 -1.868750 -0.000000 0.000000 -0.000000 1.000000 231 231 231
0.613125 -1.793750 -0.000000 -0.000000 -0.000000 1.000000 231 231 231
0.681250 -1.787500 -0.000000 -0.000000 -0.000000 1.000000 231 231 231
0.613125 -1.768750 -0.000000 -0.000000 -0.000000 1.000000 231 231 231
-0.204375 -1.868750 -0.000000 -0.000000 -0.000000 1.000000 231 231 231
-0.272500 -1.875000 -0.000000 -0.000000 -0.000000 1.000000 231 231 231
0.885625 -1.893750 -0.000000 0.000000 -0.000000 1.000000 231 231 231
0.885625 -1.918750 -0.000000 0.000000 -0.000000 1.000000 231 231 231
-0.204375 -1.831250 -0.000000 -0.000000 -0.000000 1.000000 231 231 231
-0.272500 -1.825000 -0.000000 -0.000000 -0.000000 1.000000 231 231 231
0.681250 -1.750000 -0.000000 0.000000 -0.000000 1.000000 231 231 231
0.545000 -1.750000 -0.000000 0.000000 -0.000000 1.000000 231 231 231
-0.749375 -1.856250 -0.000000 0.000000 -0.000000 1.000000 231 231 231
-0.715313 -1.821875 -0.000000 0.000000 -0.000000 1.000000 231 231 231
-0.749375 -1.806250 -0.000000 0.000000 -0.000000 1.000000 231 231 231
-0.340625 -1.781250 -0.000000 -0.000000 -0.000000 1.000000 231 231 231
-0.272500 -1.775000 -0.000000 -0.000000 -0.000000 1.000000 231 231 231
-0.408750 -1.762500 -0.000000 -0.000000 -0.000000 1.000000 231 231 231
-0.681250 -1.937500 -0.000000 -0.000000 -0.000000 1.000000 231 231 231
-0.613125 -1.931250 -0.000000 -0.000000 -0.000000 1.000000 231 231 231
0.374688 -1.828125 -0.000000 -0.000000 -0.000000 1.000000 231 231 231
0.340625 -1.843750 -0.000000 -0.000000 -0.000000 1.000000 231 231 231
0.408750 -1.862500 -0.000000 -0.000000 -0.000000 1.000000 231 231 231
0.204375 -1.893750 -0.000000 0.000000 -0.000000 1.000000 231 231 231
0.170313 -1.878125 -0.000000 0.000000 -0.000000 1.000000 231 231 231
0.681250 -1.787500 -0.000000 -0.000000 -0.000000 1.000000 231 231 231
0.715313 -1.821875 -0.000000 -0.000000 -0.000000 1.000000 231 231 231
0.749375 -1.806250 -0.000000 -0.000000 -0.000000 1.000000 231 231 231
0.204375 -1.931250 -0.000000 -0.000000 -0.000000 1.000000 231 231 231
0.919688 -1.828125 -0.000000 -0.000000 -0.000000 1.000000 231 231 231
0.885625 -1.843750 -0.000000 -0.000000 -0.000000 1.000000 231 231 231
-0.579063 -1.884375 -0.000000 0.000000 -0.000000 1.000000 231 231 231
-0.545000 -1.850000 -0.000000 0.000000 -0.000000 1.000000 231 231 231
0.102188 -1.803125 -0.000000 -0.000000 -0.000000 1.000000 231 231 231
0.068125 -1.768750 -0.000000 -0.000000 -0.000000 1.000000 231 231 231
-0.306563 -1.890625 -0.000000 0.000000 -0.000000 1.000000 231 231 231
-0.340625 -1.906250 -0.000000 0.000000 -0.000000 1.000000 231 231 231
0.681250 -1.837500 -0.000000 -0.000000 -0.000000 1.000000 231 231 231
0.715313 -1.871875 -0.000000 -0.000000 -0.000000 1.000000 231 231 231
0.238438 -1.909375 -0.000000 0.000000 -0.000000 1.000000 231 231 231
0.851563 -1.809375 -0.000000 0.000000 -0.000000 1.000000 231 231 231
-0.340625 -1.843750 -0.000000 0.000000 -0.000000 1.000000 231 231 231
-0.374688 -1.828125 -0.000000 0.000000 -0.000000 1.000000 231 231 231
0.272500 -1.750000 -0.000000 0.000000 -0.000000 1.000000 231 231 231
0.340625 -1.768750 -0.000000 0.000000 -0.000000 1.000000 231 231 231
0.408750 -1.762500 -0.000000 0.000000 -0.000000 1.000000 231 231 231
-0.034063 -1.865625 -0.000000 -0.000000 -0.000000 1.000000 231 231 231
-0.068125 -1.881250 -0.000000 -0.000000 -0.000000 1.000000 231 231 231
0.749375 -1.881250 -0.000000 -0.000000 -0.000000 1.000000 231 231 231
0.681250 -1.887500 -0.000000 -0.000000 -0.000000 1.000000 231 231 231
-0.306563 -1.859375 -0.000000 -0.000000 -0.000000 1.000000 231 231 231
0.579063 -1.784375 -0.000000 -0.000000 -0.000000 1.000000 231 231 231
-0.681250 -1.787500 -0.000000 -0.000000 -0.000000 1.000000 231 231 231
-0.715313 -1.821875 -0.000000 -0.000000 -0.000000 1.000000 231 231 231
-0.681250 -1.837500 -0.000000 -0.000000 -0.000000 1.000000 231 231 231
-0.340625 -1.756250 -0.000000 -0.000000 -0.000000 1.000000 231 231 231
-0.408750 -1.762500 -0.000000 -0.000000 -0.000000 1.000000 231 231 231
-0.579063 -1.915625 -0.000000 -0.000000 -0.000000 1.000000 231 231 231
-0.613125 -1.931250 -0.000000 -0.000000 -0.000000 1.000000 231 231 231
0.408750 -1.812500 -0.000000 -0.000000 -0.000000 1.000000 231 231 231
0.442813 -1.846875 -0.000000 -0.000000 -0.000000 1.000000 231 231 231
0.476875 -1.831250 -0.000000 -0.000000 -0.000000 1.000000 231 231 231
0.204375 -1.868750 -0.000000 -0.000000 -0.000000 1.000000 231 231 231
0.749375 -1.781250 -0.000000 0.000000 -0.000000 1.000000 231 231 231
-0.613125 -1.818750 -0.000000 -0.000000 -0.000000 1.000000 231 231 231
-0.647188 -1.853125 -0.000000 -0.000000 -0.000000 1.000000 231 231 231
-0.613125 -1.868750 -0.000000 -0.000000 -0.000000 1.000000 231 231 231
0.000000 -1.800000 -0.000000 0.000000 -0.000000 1.000000 231 231 231
0.034063 -1.834375 -0.000000 0.000000 -0.000000 1.000000 231 231 231
0.068125 -1.818750 -0.000000 0.000000 -0.000000 1.000000 231 231 231
-0.340625 -1.881250 -0.000000 -0.000000 -0.000000 1.000000 231 231 231
-0.408750 -1.887500 -0.000000 -0.000000 -0.000000 1.000000 231 231 231
0.749375 -1.856250 -0.000000 -0.000000 -0.000000 1.000000 231 231 231
0.749375 -1.881250 -0.000000 -0.000000 -0.000000 1.000000 231 231 231
-0.340625 -1.818750 -0.000000 0.000000 -0.000000 1.000000 231 231 231
0.408750 -1.750000 -0.000000 0.000000 -0.000000 1.000000 231 231 231
-0.613125 -1.818750 -0.000000 0.000000 -0.000000 1.000000 231 231 231
-0.647188 -1.803125 -0.000000 0.000000 -0.000000 1.000000 231 231 231
-0.272500 -1.750000 -0.000000 0.000000 -0.000000 1.000000 231 231 231
-0.204375 -1.768750 -0.000000 0.000000 -0.000000 1.000000 231 231 231
-0.136250 -1.762500 -0.000000 0.000000 -0.000000 1.000000 231 231 231
-0.613125 -1.906250 -0.000000 -0.000000 -0.000000 1.000000 231 231 231
-0.681250 -1.912500 -0.000000 -0.000000 -0.000000 1.000000 231 231 231
0.476875 -1.806250 -0.000000 -0.000000 -0.000000 1.000000 231 231 231
-0.579063 -1.834375 -0.000000 -0.000000 -0.000000 1.000000 231 231 231
0.034063 -1.784375 -0.000000 0.000000 -0.000000 1.000000 231 231 231
-0.613125 -1.793750 -0.000000 0.000000 -0.000000 1.000000 231 231 231
-0.136250 -1.750000 -0.000000 0.000000 -0.000000 1.000000 231 231 231
-0.545000 -1.900000 -0.000000 0.000000 -0.000000 1.000000 231 231 231
0.545000 -1.800000 -0.000000 -0.000000 -0.000000 1.000000 231 231 231
-0.545000 -1.800000 -0.000000 -0.000000 -0.000000 1.000000 231 231 231
0.000000 -1.750000 -0.000000 0.000000 -0.000000 1.000000 231 231 231
-0.987813 -1.846875 -0.000000 0.000000 -0.000000 1.000000 231 231 231
-1.021875 -1.831250 -0.000000 0.000000 -0.000000 1.000000 231 231 231
-0.068125 -1.831250 -0.000000 0.000000 -0.000000 1.000000 231 231 231
0.000000 -1.850000 -0.000000 0.000000 -0.000000 1.000000 231 231 231
-0.034063 -1.815625 -0.000000 0.000000 -0.000000 1.000000 231 231 231
-0.340625 -1.931250 -0.000000 -0.000000 -0.000000 1.000000 231 231 231
-0.408750 -1.912500 -0.000000 -0.000000 -0.000000 1.000000 231 231 231
0.136250 -1.862500 -0.000000 -0.000000 -0.000000 1.000000 231 231 231
0.272500 -1.875000 -0.000000 -0.000000 -0.000000 1.000000 231 231 231
0.204375 -1.856250 -0.000000 -0.000000 -0.000000 1.000000 231 231 231
0.000000 -1.900000 -0.000000 -0.000000 -0.000000 1.000000 231 231 231
0.034063 -1.915625 -0.000000 -0.000000 -0.000000 1.000000 231 231 231
0.783438 -1.840625 -0.000000 -0.000000 -0.000000 1.000000 231 231 231
0.817500 -1.825000 -0.000000 -0.000000 -0.000000 1.000000 231 231 231
0.340625 -1.943750 -0.000000 0.000000 -0.000000 1.000000 231 231 231
0.851563 -1.859375 -0.000000 0.000000 -0.000000 1.000000 231 231 231
-0.953750 -1.912500 -0.000000 -0.000000 -0.000000 1.000000 231 231 231
-0.885625 -1.931250 -0.000000 -0.000000 -0.000000 1.000000 231 231 231
-0.817500 -1.925000 -0.000000 -0.000000 -0.000000 1.000000 231 231 231
0.272500 -1.825000 -0.000000 0.000000 -0.000000 1.000000 231 231 231
0.238438 -1.790625 -0.000000 0.000000 -0.000000 1.000000 231 231 231
-0.204375 -1.918750 -0.000000 -0.000000 -0.000000 1.000000 231 231 231
-0.204375 -1.893750 -0.000000 -0.000000 -0.000000 1.000000 231 231 231
0.613125 -1.818750 -0.000000 0.000000 -0.000000 1.000000 231 231 231
0.579063 -1.834375 -0.000000 0.000000 -0.000000 1.000000 231 231 231
0.068125 -1.931250 -0.000000 0.000000 -0.000000 1.000000 231 231 231
0.136250 -1.937500 -0.000000 0.000000 -0.000000 1.000000 231 231 231
0.851563 -1.809375 -0.000000 -0.000000 -0.000000 1.000000 231 231 231
-0.545000 -1.850000 -0.000000 -0.000000 -0.000000 1.000000 231 231 231
-0.510938 -1.865625 -0.000000 -0.000000 -0.000000 1.000000 231 231 231
0.510938 -1.765625 -0.000000 -0.000000 -0.000000 1.000000 231 231 231
0.476875 -1.781250 -0.000000 -0.000000 -0.000000 1.000000 231 231 231
-0.102188 -1.896875 -0.000000 0.000000 -0.000000 1.000000 231 231 231
0.613125 -1.893750 -0.000000 -0.000000 -0.000000 1.000000 231 231 231
-0.476875 -1.881250 -0.000000 0.000000 -0.000000 1.000000 231 231 231
-0.408750 -1.887500 -0.000000 0.000000 -0.000000 1.000000 231 231 231
0.613125 -1.768750 -0.000000 -0.000000 -0.000000 1.000000 231 231 231
-0.953750 -1.762500 -0.000000 0.000000 -0.000000 1.000000 231 231 231
-0.987813 -1.796875 -0.000000 0.000000 -0.000000 1.000000 231 231 231
-0.953750 -1.812500 -0.000000 0.000000 -0.000000 1.000000 231 231 231
-0.885625 -1.756250 -0.000000 -0.000000 -0.000000 1.000000 231 231 231
-0.953750 -1.762500 -0.000000 -0.000000 -0.000000 1.000000 231 231 231
-0.817500 -1.775000 -0.000000 -0.000000 -0.000000 1.000000 231 231 231
-0.953750 -1.937500 -0.000000 0.000000 -0.000000 1.000000 231 231 231
-0.953750 -1.950000 -0.000000 0.000000 -0.000000 1.000000 231 231 231
-0.817500 -1.950000 -0.000000 0.000000 -0.000000 1.000000 231 231 231
0.510938 -1.865625 -0.000000 0.000000 -0.000000 1.000000 231 231 231
0.545000 -1.850000 -0.000000 0.000000 -0.000000 1.000000 231 231 231
0.068125 -1.856250 -0.000000 0.000000 -0.000000 1.000000 231 231 231
0.068125 -1.881250 -0.000000 0.000000 -0.000000 1.000000 231 231 231
0.613125 -1.793750 -0.000000 0.000000 -0.000000 1.000000 231 231 231
-0.749375 -1.856250 -0.000000 0.000000 -0.000000 1.000000 231 231 231
-0.749375 -1.881250 -0.000000 0.000000 -0.000000 1.000000 231 231 231
-0.681250 -1.887500 -0.000000 0.000000 -0.000000 1.000000 231 231 231
0.136250 -1.837500 -0.000000 -0.000000 -0.000000 1.000000 231 231 231
0.102188 -1.803125 -0.000000 -0.000000 -0.000000 1.000000 231 231 231
0.068125 -1.818750 -0.000000 -0.000000 -0.000000 1.000000 231 231 231
-0.476875 -1.893750 -0.000000 -0.000000 -0.000000 1.000000 231 231 231
0.647188 -1.853125 -0.000000 0.000000 -0.000000 1.000000 231 231 231
-0.476875 -1.806250 -0.000000 0.000000 -0.000000 1.000000 231 231 231
-0.476875 -1.831250 -0.000000 0.000000 -0.000000 1.000000 231 231 231
0.136250 -1.750000 -0.000000 0.000000 -0.000000 1.000000 231 231 231
-0.817500 -1.825000 -0.000000 0.000000 -0.000000 1.000000 231 231 231
-0.783438 -1.840625 -0.000000 0.000000 -0.000000 1.000000 231 231 231
-0.476875 -1.793750 -0.000000 -0.000000 -0.000000 1.000000 231 231 231
-0.408750 -1.787500 -0.000000 -0.000000 -0.000000 1.000000 231 231 231
-0.476875 -1.768750 -0.000000 -0.000000 -0.000000 1.000000 231 231 231
-0.749375 -1.918750 -0.000000 0.000000 -0.000000 1.000000 231 231 231
-0.817500 -1.925000 -0.000000 0.000000 -0.000000 1.000000 231 231 231
0.340625 -1.818750 -0.000000 0.000000 -0.000000 1.000000 231 231 231
0.272500 -1.825000 -0.000000 0.000000 -0.000000 1.000000 231 231 231
-0.579063 -1.834375 -0.000000 0.000000 -0.000000 1.000000 231 231 231
0.034063 -1.784375 -0.000000 -0.000000 -0.000000 1.000000 231 231 231
-0.749375 -1.781250 -0.000000 0.000000 -0.000000 1.000000 231 231 231
-0.817500 -1.775000 -0.000000 0.000000 -0.000000 1.000000 231 231 231
-0.749375 -1.806250 -0.000000 0.000000 -0.000000 1.000000 231 231 231
-0.408750 -1.750000 -0.000000 0.000000 -0.000000 1.000000 231 231 231
-0.545000 -1.750000 -0.000000 0.000000 -0.000000 1.000000 231 231 231
-0.681250 -1.837500 -0.000000 0.000000 -0.000000 1.000000 231 231 231
-1.021875 -1.831250 -0.000000 -0.000000 -0.000000 1.000000 231 231 231
-0.987813 -1.796875 -0.000000 -0.000000 -0.000000 1.000000 231 231 231
-1.021875 -1.781250 -0.000000 -0.000000 -0.000000 1.000000 231 231 231
-0.170313 -1.778125 -0.000000 0.000000 -0.000000 1.000000 231 231 231
-0.204375 -1.793750 -0.000000 0.000000 -0.000000 1.000000 231 231 231
-0.136250 -1.812500 -0.000000 0.000000 -0.000000 1.000000 231 231 231
-0.476875 -1.943750 -0.000000 0.000000 -0.000000 1.000000 231 231 231
-0.408750 -1.937500 -0.000000 0.000000 -0.000000 1.000000 231 231 231
-0.476875 -1.918750 -0.000000 0.000000 -0.000000 1.000000 231 231 231
0.238438 -1.840625 -0.000000 -0.000000 -0.000000 1.000000 231 231 231
0.204375 -1.856250 -0.000000 -0.000000 -0.000000 1.000000 231 231 231
0.034063 -1.865625 -0.000000 0.000000 -0.000000 1.000000 231 231 231
0.783438 -1.790625 -0.000000 -0.000000 -0.000000 1.000000 231 231 231
0.749375 -1.806250 -0.000000 -0.000000 -0.000000 1.000000 231 231 231
-0.885625 -1.893750 -0.000000 -0.000000 -0.000000 1.000000 231 231 231
-0.885625 -1.918750 -0.000000 -0.000000 -0.000000 1.000000 231 231 231
0.204375 -1.781250 -0.000000 -0.000000 -0.000000 1.000000 231 231 231
0.136250 -1.762500 -0.000000 -0.000000 -0.000000 1.000000 231 231 231
-0.238438 -1.909375 -0.000000 0.000000 -0.000000 1.000000 231 231 231
0.647188 -1.853125 -0.000000 0.000000 -0.000000 1.000000 231 231 231
-0.510938 -1.815625 -0.000000 -0.000000 -0.000000 1.000000 231 231 231
0.476875 -1.756250 -0.000000 -0.000000 -0.000000 1.000000 231 231 231
0.408750 -1.762500 -0.000000 -0.000000 -0.000000 1.000000 231 231 231
-0.885625 -1.793750 -0.000000 -0.000000 -0.000000 1.000000 231 231 231
-0.919688 -1.778125 -0.000000 -0.000000 -0.000000 1.000000 231 231 231
-0.817500 -1.750000 -0.000000 0.000000 -0.000000 1.000000 231 231 231
-0.749375 -1.768750 -0.000000 0.000000 -0.000000 1.000000 231 231 231
-0.681250 -1.762500 -0.000000 0.000000 -0.000000 1.000000 231 231 231
-0.885625 -1.931250 -0.000000 -0.000000 -0.000000 1.000000 231 231 231
0.510938 -1.815625 -0.000000 0.000000 -0.000000 1.000000 231 231 231
0.476875 -1.831250 -0.000000 0.000000 -0.000000 1.000000 231 231 231
-0.715313 -1.871875 -0.000000 0.000000 -0.000000 1.000000 231 231 231
0.068125 -1.843750 -0.000000 -0.000000 -0.000000 1.000000 231 231 231
-0.783438 -1.790625 -0.000000 0.000000 -0.000000 1.000000 231 231 231
-0.510938 -1.784375 -0.000000 -0.000000 -0.000000 1.000000 231 231 231
-1.090000 -1.800000 -0.000000 0.000000 -0.000000 1.000000 231 231 231
-1.055938 -1.815625 -0.000000 0.000000 -0.000000 1.000000 231 231 231
-0.136250 -1.762500 -0.000000 0.000000 -0.000000 1.000000 231 231 231
-0.102188 -1.796875 -0.000000 0.000000 -0.000000 1.000000 231 231 231
-0.068125 -1.781250 -0.000000 0.000000 -0.000000 1.000000 231 231 231
-0.510938 -1.934375 -0.000000 0.000000 -0.000000 1.000000 231 231 231
0.204375 -1.831250 -0.000000 0.000000 -0.000000 1.000000 231 231 231
0.136250 -1.837500 -0.000000 0.000000 -0.000000 1.000000 231 231 231
-0.817500 -1.875000 -0.000000 0.000000 -0.000000 1.000000 231 231 231
-0.851563 -1.909375 -0.000000 0.000000 -0.000000 1.000000 231 231 231
0.068125 -1.768750 -0.000000 -0.000000 -0.000000 1.000000 231 231 231
0.136250 -1.787500 -0.000000 -0.000000 -0.000000 1.000000 231 231 231
-0.885625 -1.768750 -0.000000 -0.000000 -0.000000 1.000000 231 231 231
-0.681250 -1.750000 -0.000000 0.000000 -0.000000 1.000000 231 231 231
-1.055938 -1.765625 -0.000000 0.000000 -0.000000 1.000000 231 231 231
-0.068125 -1.756250 -0.000000 -0.000000 -0.000000 1.000000 231 231 231
-1.090000 -1.750000 -0.000000 0.000000 -0.000000 1.000000 231 231 231
-0.953750 -1.862500 -0.000000 0.000000 -0.000000 1.000000 231 231 231
-0.987813 -1.846875 -0.000000 0.000000 -0.000000 1.000000 231 231 231
-1.021875 -1.881250 -0.000000 0.000000 -0.000000 1.000000 231 231 231
-0.408750 -1.812500 -0.000000 -0.000000 -0.000000 1.000000 231 231 231
-0.272500 -1.825000 -0.000000 -0.000000 -0.000000 1.000000 231 231 231
-0.340625 -1.806250 -0.000000 -0.000000 -0.000000 1.000000 231 231 231
-0.272500 -1.950000 -0.000000 -0.000000 -0.000000 1.000000 231 231 231
-0.340625 -1.931250 -0.000000 -0.000000 -0.000000 1.000000 231 231 231
-0.408750 -1.937500 -0.000000 -0.000000 -0.000000 1.000000 231 231 231
0.340625 -1.868750 -0.000000 0.000000 -0.000000 1.000000 231 231 231
0.340625 -1.843750 -0.000000 0.000000 -0.000000 1.000000 231 231 231
0.034063 -1.915625 -0.000000 0.000000 -0.000000 1.000000 231 231 231
0.715313 -1.821875 -0.000000 0.000000 -0.000000 1.000000 231 231 231
-0.749375 -1.918750 -0.000000 -0.000000 -0.000000 1.000000 231 231 231
-0.681250 -1.912500 -0.000000 -0.000000 -0.000000 1.000000 231 231 231
-0.749375 -1.893750 -0.000000 -0.000000 -0.000000 1.000000 231 231 231
0.306563 -1.809375 -0.000000 -0.000000 -0.000000 1.000000 231 231 231
0.340625 -1.793750 -0.000000 -0.000000 -0.000000 1.000000 231 231 231
-0.204375 -1.931250 -0.000000 0.000000 -0.000000 1.000000 231 231 231
0.579063 -1.834375 -0.000000 -0.000000 -0.000000 1.000000 231 231 231
-0.510938 -1.865625 -0.000000 0.000000 -0.000000 1.000000 231 231 231
0.340625 -1.768750 -0.000000 -0.000000 -0.000000 1.000000 231 231 231
-0.885625 -1.793750 -0.000000 0.000000 -0.000000 1.000000 231 231 231
-0.919688 -1.828125 -0.000000 0.000000 -0.000000 1.000000 231 231 231
-0.885625 -1.843750 -0.000000 0.000000 -0.000000 1.000000 231 231 231
-0.579063 -1.765625 -0.000000 -0.000000 -0.000000 1.000000 231 231 231
-0.613125 -1.781250 -0.000000 -0.000000 -0.000000 1.000000 231 231 231
-0.749375 -1.943750 -0.000000 0.000000 -0.000000 1.000000 231 231 231
0.442813 -1.846875 -0.000000 -0.000000 -0.000000 1.000000 231 231 231
-0.647188 -1.853125 -0.000000 -0.000000 -0.000000 1.000000 231 231 231
0.204375 -1.831250 -0.000000 -0.000000 -0.000000 1.000000 231 231 231
-0.783438 -1.840625 -0.000000 0.000000 -0.000000 1.000000 231 231 231
-0.476875 -1.768750 -0.000000 -0.000000 -0.000000 1.000000 231 231 231
-1.090000 -1.900000 -0.000000 -0.000000 -0.000000 1.000000 231 231 231
-1.055938 -1.915625 -0.000000 -0.000000 -0.000000 1.000000 231 231 231
-1.021875 -1.881250 -0.000000 -0.000000 -0.000000 1.000000 231 231 231
-0.034063 -1.815625 -0.000000 -0.000000 -0.000000 1.000000 231 231 231
0.000000 -1.800000 -0.000000 -0.000000 -0.000000 1.000000 231 231 231
-0.476875 -1.918750 -0.000000 -0.000000 -0.000000 1.000000 231 231 231
0.068125 -1.843750 -0.000000 -0.000000 -0.000000 1.000000 231 231 231
-1.021875 -1.931250 -0.000000 0.000000 -0.000000 1.000000 231 231 231
-1.090000 -1.950000 -0.000000 0.000000 -0.000000 1.000000 231 231 231
-0.953750 -1.937500 -0.000000 0.000000 -0.000000 1.000000 231 231 231
0.204375 -1.806250 -0.000000 -0.000000 -0.000000 1.000000 231 231 231
0.204375 -1.781250 -0.000000 -0.000000 -0.000000 1.000000 231 231 231
-1.021875 -1.756250 -0.000000 0.000000 -0.000000 1.000000 231 231 231
-1.021875 -1.781250 -0.000000 0.000000 -0.000000 1.000000 231 231 231
-0.953750 -1.750000 -0.000000 0.000000 -0.000000 1.000000 231 231 231
-1.055938 -1.815625 -0.000000 -0.000000 -0.000000 1.000000 231 231 231
-0.204375 -1.768750 -0.000000 -0.000000 -0.000000 1.000000 231 231 231
-0.272500 -1.775000 -0.000000 -0.000000 -0.000000 1.000000 231 231 231
-1.090000 -1.850000 -0.000000 0.000000 -0.000000 1.000000 231 231 231
-1.021875 -1.931250 -0.000000 0.000000 -0.000000 1.000000 231 231 231
-0.987813 -1.896875 -0.000000 0.000000 -0.000000 1.000000 231 231 231
-0.306563 -1.790625 -0.000000 -0.000000 -0.000000 1.000000 231 231 231
-0.340625 -1.806250 -0.000000 -0.000000 -0.000000 1.000000 231 231 231
-0.408750 -1.950000 -0.000000 0.000000 -0.000000 1.000000 231 231 231
0.306563 -1.859375 -0.000000 -0.000000 -0.000000 1.000000 231 231 231
-0.783438 -1.909375 -0.000000 0.000000 -0.000000 1.000000 231 231 231
0.340625 -1.818750 -0.000000 -0.000000 -0.000000 1.000000 231 231 231
0.408750 -1.812500 -0.000000 -0.000000 -0.000000 1.000000 231 231 231
-0.851563 -1.809375 -0.000000 0.000000 -0.000000 1.000000 231 231 231
-0.613125 -1.756250 -0.000000 -0.000000 -0.000000 1.000000 231 231 231
-0.681250 -1.762500 -0.000000 -0.000000 -0.000000 1.000000 231 231 231
-1.055938 -1.865625 -0.000000 0.000000 -0.000000 1.000000 231 231 231
-0.034063 -1.765625 -0.000000 -0.000000 -0.000000 1.000000 231 231 231
-0.068125 -1.781250 -0.000000 -0.000000 -0.000000 1.000000 231 231 231
-1.055938 -1.915625 -0.000000 0.000000 -0.000000 1.000000 231 231 231
-0.340625 -1.781250 -0.000000 0.000000 -0.000000 1.000000 231 231 231
-0.408750 -1.787500 -0.000000 0.000000 -0.000000 1.000000 231 231 231
-0.885625 -1.893750 -0.000000 0.000000 -0.000000 1.000000 231 231 231
-0.851563 -1.859375 -0.000000 0.000000 -0.000000 1.000000 231 231 231
-0.885625 -1.843750 -0.000000 0.000000 -0.000000 1.000000 231 231 231
-0.204375 -1.818750 -0.000000 -0.000000 -0.000000 1.000000 231 231 231
-0.204375 -1.793750 -0.000000 -0.000000 -0.000000 1.000000 231 231 231
-0.136250 -1.950000 -0.000000 0.000000 -0.000000 1.000000 231 231 231
0.340625 -1.881250 -0.000000 0.000000 -0.000000 1.000000 231 231 231
-0.749375 -1.893750 -0.000000 -0.000000 -0.000000 1.000000 231 231 231
0.476875 -1.806250 -0.000000 -0.000000 -0.000000 1.000000 231 231 231
-0.851563 -1.809375 -0.000000 -0.000000 -0.000000 1.000000 231 231 231
-0.749375 -1.768750 -0.000000 -0.000000 -0.000000 1.000000 231 231 231
-1.055938 -1.865625 -0.000000 0.000000 -0.000000 1.000000 231 231 231
-0.102188 -1.796875 -0.000000 -0.000000 -0.000000 1.000000 231 231 231
-0.987813 -1.896875 -0.000000 0.000000 -0.000000 1.000000 231 231 231
-0.476875 -1.793750 -0.000000 0.000000 -0.000000 1.000000 231 231 231
-0.953750 -1.912500 -0.000000 -0.000000 -0.000000 1.000000 231 231 231
-0.919688 -1.878125 -0.000000 0.000000 -0.000000 1.000000 231 231 231
-0.238438 -1.809375 -0.000000 -0.000000 -0.000000 1.000000 231 231 231
-0.919688 -1.878125 -0.000000 -0.000000 -0.000000 1.000000 231 231 231
-0.204375 -1.831250 -0.000000 0.000000 -0.000000 1.000000 231 231 231
3 0 1 2
3 3 4 5
3 6 7 8
3 9 10 11
3 12 13 14
3 15 16 17
3 18 19 20
3 21 22 23
3 19 24 25
3 26 27 28
3 29 30 31
3 32 33 34
3 35 36 31
3 37 38 34
3 39 31 40
3 37 34 41
3 42 39 40
3 42 37 41
3 43 44 45
3 46 47 48
3 49 50 51
3 52 53 54
3 55 56 57
3 58 59 60
3 61 19 62
3 63 22 64
3 65 19 66
3 67 68 69
3 70 29 31
3 32 34 71
3 39 35 31
3 37 72 38
3 73 74 75
3 76 77 78
3 79 80 81
3 82 83 84
3 57 85 86
3 87 88 59
3 89 90 19
3 91 22 92
3 93 94 66
3 67 69 95
3 36 70 31
3 72 32 71
3 96 97 98
3 99 100 101
3 102 103 104
3 105 83 106
3 107 57 108
3 109 110 111
3 112 113 90
3 114 115 92
3 36 93 66
3 72 67 95
3 98 116 117
3 118 119 100
3 120 121 122
3 123 124 125
3 126 127 108
3 128 109 111
3 129 112 90
3 42 114 92
3 130 98 131
3 132 133 134
3 135 120 122
3 136 123 125
3 129 126 108
3 137 128 111
3 138 139 131
3 140 132 134
3 141 135 122
3 42 136 125
3 141 138 131
3 137 140 134
3 142 143 144
3 145 146 147
3 148 149 150
3 151 152 153
3 154 155 156
3 157 158 159
3 160 161 162
3 163 22 164
3 165 129 24
3 166 69 28
3 29 19 30
3 32 27 33
3 167 44 168
3 169 170 171
3 172 173 174
3 175 176 177
3 178 179 57
3 180 181 182
3 183 184 61
3 185 27 63
3 94 65 66
3 67 137 68
3 186 187 188
3 189 190 191
3 192 80 193
3 194 195 83
3 196 197 85
3 198 199 88
3 129 89 19
3 115 91 92
3 200 201 98
3 202 203 204
3 205 206 103
3 207 83 208
3 127 107 108
3 109 59 110
3 209 210 116
3 211 212 119
3 120 104 121
3 123 83 124
3 139 130 131
3 132 100 133
3 213 214 215
3 216 217 218
3 219 149 220
3 221 222 223
3 156 224 225
3 226 227 228
3 229 160 162
3 230 231 164
3 94 165 24
3 72 166 28
3 232 44 233
3 234 171 235
3 236 237 173
3 238 177 239
3 197 240 57
3 180 182 241
3 113 183 61
3 115 185 63
3 188 242 243
3 244 245 246
3 247 248 193
3 249 250 195
3 127 196 85
3 109 198 88
3 210 251 98
3 212 252 204
3 120 205 103
3 123 207 208
3 139 209 116
3 132 211 119
3 253 254 255
3 256 257 217
3 258 259 149
3 260 261 262
3 263 154 224
3 264 226 228
3 184 229 162
3 27 230 164
3 265 266 267
3 268 269 270
3 271 272 237
3 273 177 274
3 197 178 240
3 199 180 241
3 275 186 242
3 276 244 246
3 141 247 193
3 105 249 195
3 210 200 251
3 212 77 252
3 255 277 278
3 279 280 281
3 282 283 259
3 284 260 262
3 197 263 224
3 199 264 228
3 265 267 285
3 268 270 286
3 206 271 237
3 105 273 274
3 210 275 242
3 212 276 246
3 287 253 277
3 288 279 281
3 289 282 259
3 290 284 262
3 291 265 285
3 292 268 286
3 291 287 277
3 292 288 281
3 293 1 294
3 295 296 297
3 298 8 299
3 300 301 302
3 303 304 14
3 305 16 306
3 184 307 20
3 308 16 21
3 129 19 25
3 69 26 28
3 309 310 311
3 312 47 313
3 314 51 315
3 316 317 54
3 318 80 319
3 320 182 60
3 113 61 62
3 115 63 64
3 321 322 75
3 323 324 77
3 325 104 79
3 326 152 82
3 197 57 86
3 109 87 59
3 327 44 328
3 329 203 101
3 120 102 104
3 207 105 106
3 210 98 117
3 132 118 100
3 330 331 332
3 333 334 335
3 336 337 338
3 339 152 340
3 341 141 342
3 343 290 158
3 160 80 161
3 231 163 164
3 344 345 346
3 347 348 349
3 350 289 172
3 351 175 177
3 178 55 179
3 180 16 181
3 352 291 353
3 354 292 190
3 248 192 193
3 105 194 83
3 200 96 201
3 77 202 204
3 355 356 215
3 357 358 359
3 360 361 219
3 362 363 222
3 154 156 225
3 226 159 227
3 364 267 233
3 365 270 235
3 206 236 173
3 273 238 239
3 186 188 243
3 244 191 245
3 366 367 368
3 369 370 257
3 289 258 149
3 260 223 261
3 265 371 266
3 268 296 269
3 253 255 278
3 279 217 280
3 372 373 374
3 375 376 377
3 378 379 380
3 381 382 301
3 303 14 383
3 384 385 306
3 184 162 307
3 231 308 21
3 386 387 311
3 388 47 389
3 206 390 315
3 316 54 391
3 55 318 319
3 199 320 60
3 321 75 392
3 393 394 324
3 248 325 79
3 250 326 82
3 96 327 328
3 212 329 101
3 332 395 396
3 397 398 399
3 400 336 338
3 401 402 340
3 154 341 342
3 226 343 158
3 371 403 346
3 404 347 349
3 272 350 172
3 238 351 177
3 186 352 353
3 244 354 190
3 355 215 405
3 370 406 359
3 283 360 219
3 260 362 222
3 291 364 233
3 292 365 235
3 253 366 368
3 279 369 257
3 407 408 374
3 409 410 411
3 289 412 380
3 413 414 382
3 141 303 383
3 199 384 306
3 415 416 311
3 417 418 389
3 206 173 390
3 238 316 391
3 291 321 392
3 212 393 324
3 419 330 395
3 420 397 399
3 361 400 338
3 290 401 340
3 371 344 403
3 296 404 349
3 367 355 405
3 370 146 406
3 407 374 421
3 422 409 411
3 289 149 412
3 363 413 382
3 415 386 416
3 292 417 389
3 367 419 395
3 370 420 399
3 423 407 421
3 292 422 411
3 424 425 426
3 427 428 429
3 430 431 432
3 433 11 434
3 12 14 435
3 436 159 15
3 162 18 20
3 231 21 23
3 437 438 439
3 440 441 47
3 442 49 51
3 52 54 443
3 55 319 56
3 182 58 60
3 73 75 444
3 445 191 76
3 248 79 81
3 250 82 84
3 96 328 97
3 203 99 101
3 446 447 448
3 449 450 146
3 361 451 150
3 452 223 151
3 154 342 155
3 226 157 159
3 346 168 453
3 454 312 170
3 272 172 174
3 175 152 176
3 186 353 187
3 244 189 191
3 213 215 455
3 456 358 218
3 283 219 220
3 260 221 223
3 267 232 233
3 270 234 235
3 253 368 254
3 279 256 217
3 457 458 459
3 460 296 461
3 462 379 299
3 463 296 300
3 303 80 304
3 385 305 306
3 464 465 466
3 467 47 468
3 173 314 315
3 316 290 317
3 321 44 322
3 212 323 77
3 469 423 470
3 471 423 334
3 336 465 337
3 402 339 340
3 344 415 345
3 347 171 348
3 355 143 356
3 146 357 359
3 372 374 472
3 473 474 376
3 149 378 380
3 363 381 301
3 386 309 387
3 418 388 389
3 330 332 396
3 397 335 398
3 407 475 408
3 409 377 410
3 476 477 426
3 478 479 428
3 480 430 432
3 363 481 434
3 80 12 435
3 385 436 15
3 415 482 439
3 483 484 441
3 173 442 51
3 290 52 443
3 44 73 444
3 394 445 76
3 446 448 485
3 486 487 450
3 361 338 451
3 402 452 151
3 371 346 453
3 347 454 170
3 143 213 455
3 370 456 218
3 457 459 488
3 489 490 461
3 289 462 299
3 414 463 300
3 309 464 466
3 418 467 468
3 330 469 470
3 397 471 334
3 475 372 472
3 409 473 376
3 476 426 491
3 492 493 479
3 149 480 432
3 363 301 481
3 415 311 482
3 312 483 441
3 367 446 485
3 370 486 450
3 475 457 488
3 292 489 461
3 465 476 491
3 474 492 479
3 494 495 496
3 497 5 498
3 499 80 7
3 500 9 11
3 12 156 13
3 385 15 17
3 501 438 45
3 502 77 46
3 49 80 50
3 52 152 53
3 73 188 74
3 394 76 78
3 503 448 144
3 504 335 145
3 338 148 150
3 402 151 153
3 346 167 168
3 347 169 171
3 213 255 214
3 358 216 218
3 505 459 294
3 506 377 295
3 379 298 299
3 414 300 302
3 309 466 310
3 467 312 313
3 330 470 331
3 397 333 335
3 372 1 373
3 409 375 377
3 424 426 507
3 508 146 427
3 430 8 431
3 301 433 434
3 311 437 439
3 312 440 47
3 446 332 447
3 370 449 146
3 457 465 458
3 490 460 461
3 476 509 477
3 474 478 428
3 494 496 510
3 474 511 498
3 430 499 7
3 301 500 11
3 415 501 45
3 484 502 46
3 367 503 144
3 487 504 145
3 475 505 294
3 490 506 295
3 509 424 507
3 493 508 427
3 509 494 510
3 474 428 511
3 512 496 2
3 513 3 5
3 430 6 8
3 9 152 10
3 438 43 45
3 484 46 48
3 448 142 144
3 487 145 147
3 459 293 294
3 490 295 297
3 424 1 425
3 493 427 429
3 494 143 495
3 428 497 498
3 509 512 2
3 428 513 5
3 496 0 2
3 3 296 4
